<?xml version="1.0" encoding="utf-8"?>
<!-- Generator: Adobe Illustrator 19.0.0, SVG Export Plug-In . SVG Version: 6.00 Build 0)  -->
<svg version="1.1" id="Layer_1" xmlns="http://www.w3.org/2000/svg" xmlns:xlink="http://www.w3.org/1999/xlink" x="0px" y="0px"
	 viewBox="124 -40.6 292.3 124.6" style="enable-background:new 124 -40.6 292.3 124.6;" xml:space="preserve">
<style type="text/css">
	.st0{fill:#222222;}
	.st1{font-family:'Roboto-Bold';}
	.st2{font-size:20px;}
	.st3{fill:none;stroke:#222222;stroke-width:4;}
</style>
<text transform="matrix(1 0 0 1 302.824 20.8736)" class="st0 st1 st2">WE ARE </text>
<text transform="matrix(1 0 0 1 302.824 44.8736)" class="st0 st1 st2">CREATIVE </text>
<text transform="matrix(1 0 0 1 302.824 68.8736)" class="st0 st1 st2">STUDIO</text>
<line id="Line_20" class="st3" x1="303.3" y1="-38.6" x2="415.3" y2="-38.6"/>
<path id="Path_59" d="M233.1-40.1h-21.4L173.6,68.1h20.1l8.7-25.7h40.1l9.5,25.7h19.7L233.1-40.1z M208.2,23l14.1-39.1L236.4,23
	H208.2z"/>
<path id="Path_60" d="M128.2,68.6h12.7L137.3,84h8l7.5-13.6c1.1-2,1.7-4.4,1.7-6.7V41.5h-26.4V68.6z"/>
</svg>
