<?xml version="1.0" encoding="utf-8"?>
<!-- Generator: Adobe Illustrator 19.0.0, SVG Export Plug-In . SVG Version: 6.00 Build 0)  -->
<svg version="1.1" id="Layer_1" xmlns="http://www.w3.org/2000/svg" xmlns:xlink="http://www.w3.org/1999/xlink" x="0px" y="0px"
	 viewBox="-3 63.4 292.3 124.6" style="enable-background:new -3 63.4 292.3 124.6;" xml:space="preserve">
<style type="text/css">
	.st0{enable-background:new    ;}
	.st1{fill:#222222;}
	.st2{fill:none;stroke:#222222;stroke-width:4;}
</style>
<g class="st0">
	<path class="st1" d="M184.1,120.8l1.9-10.1h2.9l-3.2,14.2h-2.9l-2.3-9.5l-2.3,9.5h-2.9l-3.2-14.2h2.9l1.9,10.1l2.3-10.1h2.5
		L184.1,120.8z"/>
	<path class="st1" d="M199,118.7h-5.6v3.8h6.6v2.4h-9.5v-14.2h9.5v2.4h-6.6v3.4h5.6V118.7z"/>
	<path class="st1" d="M214.7,121.9h-5.1l-1,2.9h-3.1l5.3-14.2h2.7l5.3,14.2h-3.1L214.7,121.9z M210.4,119.6h3.6l-1.8-5.3
		L210.4,119.6z"/>
	<path class="st1" d="M225.4,119.7h-2.3v5.2h-2.9v-14.2h5.3c1.7,0,3,0.4,3.9,1.1c0.9,0.7,1.4,1.8,1.4,3.2c0,1-0.2,1.8-0.6,2.4
		s-1.1,1.2-1.9,1.5l3.1,5.8v0.1h-3.1L225.4,119.7z M223.1,117.3h2.4c0.7,0,1.3-0.2,1.7-0.6c0.4-0.4,0.6-0.9,0.6-1.5
		c0-0.7-0.2-1.2-0.6-1.6s-1-0.6-1.8-0.6h-2.4V117.3z"/>
	<path class="st1" d="M241.5,118.7h-5.6v3.8h6.6v2.4h-9.5v-14.2h9.5v2.4h-6.6v3.4h5.6V118.7z"/>
</g>
<g class="st0">
	<path class="st1" d="M184.2,144.1c-0.1,1.5-0.7,2.7-1.7,3.6c-1,0.9-2.4,1.3-4,1.3c-1.8,0-3.3-0.6-4.3-1.8s-1.6-2.9-1.6-5.1v-0.9
		c0-1.4,0.2-2.6,0.7-3.6c0.5-1,1.2-1.8,2.1-2.4c0.9-0.6,1.9-0.8,3.1-0.8c1.6,0,3,0.4,4,1.3c1,0.9,1.6,2.1,1.7,3.7h-2.9
		c-0.1-0.9-0.3-1.6-0.8-2s-1.1-0.6-2-0.6c-1,0-1.7,0.3-2.2,1c-0.5,0.7-0.7,1.8-0.7,3.3v1.1c0,1.5,0.2,2.7,0.7,3.4
		c0.5,0.7,1.2,1.1,2.2,1.1c0.9,0,1.6-0.2,2-0.6c0.4-0.4,0.7-1.1,0.8-1.9H184.2z"/>
	<path class="st1" d="M191.3,143.7H189v5.2h-2.9v-14.2h5.3c1.7,0,3,0.4,3.9,1.1c0.9,0.7,1.4,1.8,1.4,3.2c0,1-0.2,1.8-0.6,2.4
		s-1.1,1.2-1.9,1.5l3.1,5.8v0.1H194L191.3,143.7z M189,141.3h2.4c0.7,0,1.3-0.2,1.7-0.6c0.4-0.4,0.6-0.9,0.6-1.5
		c0-0.7-0.2-1.2-0.6-1.6s-1-0.6-1.8-0.6H189V141.3z"/>
	<path class="st1" d="M207.4,142.7h-5.6v3.8h6.6v2.4h-9.5v-14.2h9.5v2.4h-6.6v3.4h5.6V142.7z"/>
	<path class="st1" d="M218.1,145.9H213l-1,2.9h-3.1l5.3-14.2h2.7l5.3,14.2h-3.1L218.1,145.9z M213.8,143.6h3.6l-1.8-5.3L213.8,143.6
		z"/>
	<path class="st1" d="M233.1,137h-4.4v11.8h-2.9V137h-4.3v-2.4h11.6V137z"/>
	<path class="st1" d="M237.9,148.9h-2.9v-14.2h2.9V148.9z"/>
	<path class="st1" d="M245.8,145.3l3.2-10.7h3.3l-5,14.2h-3.1l-4.9-14.2h3.3L245.8,145.3z"/>
	<path class="st1" d="M262.2,142.7h-5.6v3.8h6.6v2.4h-9.5v-14.2h9.5v2.4h-6.6v3.4h5.6V142.7z"/>
</g>
<g class="st0">
	<path class="st1" d="M180.4,169.1c0-0.6-0.2-1-0.6-1.3s-1.1-0.6-2.1-0.9c-1-0.3-1.8-0.7-2.4-1c-1.6-0.9-2.4-2-2.4-3.5
		c0-0.8,0.2-1.5,0.6-2.1c0.4-0.6,1.1-1.1,1.9-1.4s1.7-0.5,2.7-0.5c1,0,1.9,0.2,2.7,0.6c0.8,0.4,1.4,0.9,1.9,1.6s0.7,1.4,0.7,2.3
		h-2.9c0-0.7-0.2-1.2-0.6-1.5s-1-0.5-1.7-0.5c-0.7,0-1.3,0.2-1.7,0.5c-0.4,0.3-0.6,0.7-0.6,1.2c0,0.5,0.2,0.8,0.7,1.2
		c0.5,0.3,1.2,0.6,2.1,0.9c1.7,0.5,2.9,1.1,3.6,1.9c0.8,0.7,1.1,1.7,1.1,2.8c0,1.2-0.5,2.2-1.4,2.9c-0.9,0.7-2.2,1-3.8,1
		c-1.1,0-2.1-0.2-3-0.6s-1.6-0.9-2.1-1.6c-0.5-0.7-0.7-1.5-0.7-2.4h2.9c0,1.6,0.9,2.4,2.8,2.4c0.7,0,1.2-0.1,1.6-0.4
		S180.4,169.7,180.4,169.1z"/>
	<path class="st1" d="M196,161h-4.4v11.8h-2.9V161h-4.3v-2.4H196V161z"/>
	<path class="st1" d="M208.4,158.7v9.4c0,1.6-0.5,2.8-1.5,3.7c-1,0.9-2.3,1.4-4,1.4c-1.7,0-3-0.4-4-1.3s-1.5-2.1-1.5-3.6v-9.5h2.9
		v9.4c0,0.9,0.2,1.6,0.7,2c0.4,0.4,1.1,0.6,1.9,0.6c1.6,0,2.5-0.9,2.5-2.6v-9.5H208.4z"/>
	<path class="st1" d="M210.8,172.9v-14.2h4.4c1.2,0,2.4,0.3,3.4,0.8s1.8,1.4,2.3,2.4c0.6,1,0.8,2.2,0.8,3.5v0.7
		c0,1.3-0.3,2.5-0.8,3.5c-0.5,1-1.3,1.8-2.3,2.4c-1,0.6-2.1,0.9-3.3,0.9H210.8z M213.8,161v9.5h1.4c1.1,0,2-0.4,2.6-1.1
		s0.9-1.8,0.9-3.2v-0.8c0-1.4-0.3-2.5-0.9-3.3c-0.6-0.7-1.5-1.1-2.6-1.1H213.8z"/>
	<path class="st1" d="M226.9,172.9H224v-14.2h2.9V172.9z"/>
	<path class="st1" d="M241.3,166.1c0,1.4-0.2,2.6-0.7,3.7c-0.5,1.1-1.2,1.9-2.1,2.4c-0.9,0.6-2,0.9-3.2,0.9c-1.2,0-2.2-0.3-3.2-0.8
		c-0.9-0.6-1.6-1.4-2.1-2.4s-0.8-2.3-0.8-3.6v-0.7c0-1.4,0.3-2.6,0.8-3.7c0.5-1.1,1.2-1.9,2.1-2.5c0.9-0.6,2-0.9,3.2-0.9
		c1.2,0,2.2,0.3,3.2,0.9c0.9,0.6,1.6,1.4,2.1,2.5c0.5,1.1,0.8,2.3,0.8,3.7V166.1z M238.4,165.4c0-1.5-0.3-2.6-0.8-3.4
		c-0.5-0.8-1.3-1.2-2.3-1.2c-1,0-1.7,0.4-2.3,1.1c-0.5,0.8-0.8,1.9-0.8,3.4v0.7c0,1.5,0.3,2.6,0.8,3.4c0.5,0.8,1.3,1.2,2.3,1.2
		c1,0,1.7-0.4,2.3-1.2s0.8-1.9,0.8-3.4V165.4z"/>
</g>
<line id="Line_20" class="st2" x1="172.2" y1="65.4" x2="284.2" y2="65.4"/>
<path id="Path_59" d="M102,63.9H80.6L42.5,172.1h20.1l8.7-25.7h40.1l9.5,25.7h19.7L102,63.9z M77.1,127l14.1-39.1l14.1,39.1H77.1z"
	/>
<path id="Path_60" d="M-2.9,172.6H9.8L6.2,188h8l7.5-13.6c1.1-2,1.7-4.4,1.7-6.7v-22.2H-3L-2.9,172.6L-2.9,172.6z"/>
</svg>
