<?xml version="1.0" encoding="utf-8"?>
<!-- Generator: Adobe Illustrator 19.0.0, SVG Export Plug-In . SVG Version: 6.00 Build 0)  -->
<svg version="1.1" id="Layer_1" xmlns="http://www.w3.org/2000/svg" xmlns:xlink="http://www.w3.org/1999/xlink" x="0px" y="0px"
	 viewBox="0 0 44 44" style="enable-background:new 0 0 44 44;" xml:space="preserve">
<style type="text/css">
	.st0{fill:none;}
</style>
<g id="XMLID_3_">
	<path id="XMLID_4_" d="M26.8,22.4c0,1.9-0.4,3.7-1.2,5.2c-0.8,1.5-2,2.7-3.5,3.5c-1.5,0.9-3.2,1.3-5.1,1.3c-1.4,0-2.7-0.3-4-0.8
		c-1.3-0.5-2.4-1.3-3.3-2.2c-0.9-0.9-1.6-2-2.2-3.3c-0.5-1.3-0.8-2.6-0.8-4s0.3-2.7,0.8-4C8.1,17,8.8,15.9,9.7,15s2-1.6,3.3-2.2
		c1.3-0.5,2.6-0.8,4-0.8c2.7,0,4.9,0.9,6.9,2.7L21,17.3c-1.1-1.1-2.4-1.6-4.1-1.6c-1.1,0-2.2,0.3-3.2,0.9c-1,0.6-1.7,1.4-2.3,2.4
		c-0.6,1-0.9,2.1-0.9,3.2s0.3,2.3,0.9,3.2c0.6,1,1.3,1.8,2.3,2.4c1,0.6,2,0.9,3.2,0.9c0.8,0,1.5-0.1,2.1-0.3s1.2-0.5,1.6-0.8
		c0.4-0.3,0.8-0.7,1.1-1.1s0.5-0.8,0.7-1.2s0.2-0.7,0.3-1h-5.8v-3.5h9.7C26.7,21.3,26.8,21.9,26.8,22.4z M38.8,20.7v2.9h-2.9v2.9H33
		v-2.9h-2.9v-2.9H33v-2.9h2.9v2.9H38.8z"/>
</g>
<rect id="XMLID_2_" class="st0" width="44" height="44"/>
</svg>
