<?xml version="1.0" encoding="utf-8"?>
<!-- Generator: Adobe Illustrator 19.0.0, SVG Export Plug-In . SVG Version: 6.00 Build 0)  -->
<svg version="1.1" id="Layer_1" xmlns="http://www.w3.org/2000/svg" xmlns:xlink="http://www.w3.org/1999/xlink" x="0px" y="0px"
	 viewBox="0 0 44 44" style="enable-background:new 0 0 44 44;" xml:space="preserve">
<style type="text/css">
	.st0{fill:none;}
</style>
<g id="XMLID_3_">
	<path id="XMLID_4_" d="M33.1,14.2v15.9c0,0.8-0.3,1.4-0.8,1.9c-0.5,0.5-1.2,0.8-1.9,0.8H14.5c-0.8,0-1.4-0.3-1.9-0.8
		c-0.5-0.5-0.8-1.2-0.8-1.9V14.2c0-0.8,0.3-1.4,0.8-1.9c0.5-0.5,1.2-0.8,1.9-0.8h15.9c0.8,0,1.4,0.3,1.9,0.8
		C32.9,12.8,33.1,13.5,33.1,14.2z M30.7,29.6v-9h-1.9c0.2,0.6,0.3,1.2,0.3,1.8c0,1.2-0.3,2.3-0.9,3.2c-0.6,1-1.4,1.8-2.4,2.4
		c-1,0.6-2.1,0.9-3.3,0.9c-1.8,0-3.4-0.6-4.7-1.9c-1.3-1.3-2-2.8-2-4.6c0-0.6,0.1-1.2,0.3-1.8h-2v9c0,0.2,0.1,0.4,0.2,0.6
		c0.2,0.2,0.4,0.2,0.6,0.2h14.9c0.2,0,0.4-0.1,0.6-0.2C30.6,30,30.7,29.8,30.7,29.6z M25.5,25.1c0.8-0.8,1.3-1.8,1.3-2.9
		c0-1.2-0.4-2.1-1.3-3s-1.9-1.2-3-1.2c-1.2,0-2.2,0.4-3,1.2s-1.3,1.8-1.3,3c0,1.2,0.4,2.1,1.3,2.9c0.8,0.8,1.9,1.2,3,1.2
		C23.6,26.3,24.6,25.9,25.5,25.1z M30.7,17.1v-2.3c0-0.3-0.1-0.5-0.3-0.7c-0.2-0.2-0.4-0.3-0.7-0.3h-2.4c-0.3,0-0.5,0.1-0.7,0.3
		c-0.2,0.2-0.3,0.4-0.3,0.7v2.3c0,0.3,0.1,0.5,0.3,0.7c0.2,0.2,0.4,0.3,0.7,0.3h2.4c0.3,0,0.5-0.1,0.7-0.3
		C30.6,17.6,30.7,17.4,30.7,17.1z"/>
</g>
<rect id="XMLID_2_" class="st0" width="44" height="44"/>
</svg>
