<?xml version="1.0" encoding="utf-8"?>
<!-- Generator: Adobe Illustrator 19.0.0, SVG Export Plug-In . SVG Version: 6.00 Build 0)  -->
<svg version="1.1" id="Layer_1" xmlns="http://www.w3.org/2000/svg" xmlns:xlink="http://www.w3.org/1999/xlink" x="0px" y="0px"
	 viewBox="0 0 1920 1080" style="enable-background:new 0 0 1920 1080;" xml:space="preserve">
<style type="text/css">
	.st0{fill:#EF0744;}
	.st1{fill:#FFFFFF;}
	.st2{fill:#FFFFFF;stroke:#0071BC;stroke-miterlimit:10;}
	.st3{opacity:0.2;fill:none;stroke:#0071BC;stroke-miterlimit:10;}
	.st4{opacity:2.000000e-02;}
	.st5{fill:none;stroke:#000000;stroke-miterlimit:10;}
	.st6{fill:none;stroke:#FFFFFF;stroke-miterlimit:10;}
	.st7{opacity:0.1;fill:none;stroke:#000000;stroke-width:0.3692;stroke-miterlimit:10;}
	.st8{fill:none;stroke:#000000;stroke-linecap:round;stroke-miterlimit:10;}
	.st9{opacity:5.000000e-02;}
	.st10{opacity:0.2;fill:none;stroke:#0071BC;stroke-linecap:round;stroke-linejoin:round;stroke-miterlimit:10;}
	.st11{fill:none;stroke:#000000;stroke-linecap:round;stroke-linejoin:round;stroke-miterlimit:10;}
	.st12{opacity:0.2;fill:none;stroke:#0071BC;stroke-linecap:round;stroke-miterlimit:10;}
</style>
<rect x="-2112" y="2597.7" class="st0" width="1920" height="1080"/>
<g>
	<path d="M-444.1,894.7c-29.5,7.2-33.2-23.7-63.6-23.7c-30.4,0-30.4,24-60.7,24c-30.4,0-30.4-24-60.7-24c-30.4,0-30.4,24-60.7,24
		c-30.4,0-30.4-24-60.7-24c-30.4,0-30.4,24-60.7,24c-30.4,0-30.4-24-60.7-24c-30.4,0-30.4,24-60.7,24c-30.4,0-30.4-24-60.7-24
		c-30.4,0-30.4,24-60.7,24c-30.4,0-30.4-24-60.7-24c-30.4,0-30.4,24-60.7,24c-30.4,0-30.4-24-60.7-24c-30.4,0-30.4,24-60.7,24
		c-30.4,0-30.4-24-60.7-24c-30.4,0-30.4,24-60.7,24c-30.4,0-30.4-24-60.7-24c-30.4,0-30.4,24-60.7,24c-30.4,0-30.4-24-60.7-24
		c-30.4,0-30.4,24-60.7,24c-30.4,0-30.4-24-60.7-24c-30.4,0-30.4,24-60.7,24s-28.4-16.4-57.9-23.7c-7.2-1.8-14.9,4.2-14.9-3.2
		c0-7.4,24-7.4,24-14.9c0-7.4-24-7.4-24-14.9c0-7.4,24-7.4,24-14.9s-24-7.4-24-14.9c0-7.4,24-7.4,24-14.9c0-7.4-24-7.4-24-14.9
		c0-7.4,24-7.4,24-14.9c0-7.4-24-7.4-24-14.9c0-7.4,24-7.4,24-14.9c0-7.4-24-7.4-24-14.9c0-7.4,24-7.4,24-14.9c0-7.4-24-7.4-24-14.9
		c0-7.4,24-7.4,24-14.9c0-7.4-24-7.4-24-14.9c0-7.4,24-7.4,24-14.9c0-7.4-24-7.4-24-14.9c0-7.4,24-7.4,24-14.9c0-7.4-24-7.4-24-14.9
		c0-7.4,24-7.4,24-14.9c0-7.4-24-7.4-24-14.9c0-7.4,24-7.4,24-14.9c0-7.4-22.1-24.8-14.9-26.5c29.5-7.2,33.2,23.7,63.6,23.7
		c30.4,0,30.4-24,60.7-24c30.4,0,30.4,24,60.7,24c30.4,0,30.4-24,60.7-24c30.4,0,30.4,24,60.7,24s30.4-24,60.7-24
		c30.4,0,30.4,24,60.7,24c30.4,0,30.4-24,60.7-24c30.4,0,30.4,24,60.7,24c30.4,0,30.4-24,60.7-24c30.4,0,30.4,24,60.7,24
		c30.4,0,30.4-24,60.7-24c30.4,0,30.4,24,60.7,24c30.4,0,30.4-24,60.7-24c30.4,0,30.4,24,60.7,24c30.4,0,30.4-24,60.7-24
		c30.4,0,30.4,24,60.7,24c30.4,0,30.4-24,60.7-24c30.4,0,30.4,24,60.7,24c30.4,0,30.4-24,60.7-24c30.4,0,30.4,24,60.7,24
		c30.4,0,30.4-24,60.7-24s28.4,16.4,57.9,23.7c7.2,1.8,14.9-4.2,14.9,3.2c0,7.4-24,7.4-24,14.9c0,7.4,24,7.4,24,14.9
		c0,7.4-24,7.4-24,14.9c0,7.4,24,7.4,24,14.9c0,7.4-24,7.4-24,14.9c0,7.4,24,7.4,24,14.9c0,7.4-24,7.4-24,14.9c0,7.4,24,7.4,24,14.9
		c0,7.4-24,7.4-24,14.9c0,7.4,24,7.4,24,14.9c0,7.4-24,7.4-24,14.9c0,7.4,24,7.4,24,14.9c0,7.4-24,7.4-24,14.9c0,7.4,24,7.4,24,14.9
		c0,7.4-24,7.4-24,14.9c0,7.4,24,7.4,24,14.9c0,7.4-24,7.4-24,14.9c0,7.4,24,7.4,24,14.9c0,7.4-24,7.4-24,14.9c0,7.4,24,7.4,24,14.9
		c0,7.4-25.5,10.6-23.6,17.8C-455,884.9-436.8,892.9-444.1,894.7z"/>
</g>
<g>
	<polygon class="st1" points="-1196.6,541 -1098.7,541 -1147.1,402.1 	"/>
	<path class="st1" d="M-2112,0v1082.3h1920V0H-2112z M-1038.2,711.6l-35.6-96.9H-1223l-32.7,96.9h-78.4l0.6-1.6l144.1-407.9h82
		l0.3,0.8l145.7,408.7H-1038.2z"/>
</g>
<g>
	<path d="M-3138.8,452.4c-19.3-9.1-7.6-60.8-29-60.8c-21.3,0-21.3,63.9-42.6,63.9c-21.3,0-21.3-63.9-42.6-63.9
		c-21.3,0-21.3,63.9-42.6,63.9c-21.3,0-21.3-63.9-42.6-63.9c-21.3,0-21.3,63.9-42.6,63.9c-21.3,0-21.3-63.9-42.6-63.9
		c-21.3,0-21.3,63.9-42.6,63.9c-21.3,0-21.3-63.9-42.6-63.9c-21.3,0-21.3,63.9-42.6,63.9c-21.3,0-21.3-63.9-42.6-63.9
		c-21.3,0-21.3,63.9-42.6,63.9c-21.3,0-21.3-63.9-42.6-63.9c-21.3,0-21.3,63.9-42.6,63.9c-21.3,0-21.3-63.9-42.6-63.9
		c-21.3,0-21.3,63.9-42.6,63.9c-21.3,0-21.3-63.9-42.6-63.9c-21.3,0-21.3,63.9-42.6,63.9c-21.3,0-21.3-63.9-42.6-63.9
		c-21.3,0-21.3,63.9-42.6,63.9c-21.3,0-21.3-63.9-42.6-63.9c-21.3,0-21.3,63.9-42.6,63.9c-21.3,0-21.3-63.9-42.6-63.9
		c-21.3,0-21.3,63.9-42.6,63.9c-21.3,0-21.3-63.9-42.6-63.9c-21.3,0-21.3,63.9-42.6,63.9c-21.3,0-21.3-63.9-42.6-63.9
		c-21.3,0-21.3,63.9-42.6,63.9c-21.3,0-21.3-63.9-42.6-63.9c-21.3,0-21.3,63.9-42.6,63.9c-21.3,0-21.3-63.9-42.7-63.9
		s-9.7,51.6-29,60.8c-9.1,4.3-45.6-18.7-45.6-8.6c0,10.1,63.9,10.1,63.9,20.2c0,10.1-63.9,10.1-63.9,20.2
		c0,10.1,63.9,10.1,63.9,20.2c0,10.1-63.9,10.1-63.9,20.2c0,10.1,63.9,10.1,63.9,20.2c0,10.1-63.9,10.1-63.9,20.2
		c0,10.1,63.9,10.1,63.9,20.2c0,10.1-63.9,10.1-63.9,20.2c0,10.1,63.9,10.1,63.9,20.2c0,10.1-63.9,10.1-63.9,20.2
		c0,10.1,63.9,10.1,63.9,20.2c0,10.1-63.9,10.1-63.9,20.2c0,10.1,63.9,10.1,63.9,20.2c0,10.1-63.9,10.1-63.9,20.2
		c0,10.1,63.9,10.1,63.9,20.2c0,10.1-63.9,10.1-63.9,20.2c0,10.1,63.9,10.1,63.9,20.2c0,10.1-63.9,10.1-63.9,20.2
		c0,10.1,63.9,10.1,63.9,20.2c0,10.1-63.9,10.1-63.9,20.2c0,10.1,63.9,10.1,63.9,20.2c0,10.1-63.9,10.1-63.9,20.2
		c0,10.1,63.9,10.1,63.9,20.2c0,10.1-63.9,10.1-63.9,20.2c0,10.1,63.9,10.1,63.9,20.2c0,10.1-63.9,10.1-63.9,20.2
		c0,10.1,63.9,10.1,63.9,20.2c0,10.1-63.9,10.1-63.9,20.2c0,10.1,63.9,10.1,63.9,20.2c0,10.1-63.9,10.1-63.9,20.2s36.5-13,45.6-8.6
		c19.3,9.1,7.6,60.8,29,60.8s21.3-63.9,42.6-63.9s21.3,63.9,42.6,63.9s21.3-63.9,42.6-63.9c21.3,0,21.3,63.9,42.6,63.9
		c21.3,0,21.3-63.9,42.6-63.9c21.3,0,21.3,63.9,42.6,63.9c21.3,0,21.3-63.9,42.6-63.9c21.3,0,21.3,63.9,42.6,63.9
		c21.3,0,21.3-63.9,42.6-63.9c21.3,0,21.3,63.9,42.6,63.9c21.3,0,21.3-63.9,42.6-63.9c21.3,0,21.3,63.9,42.6,63.9
		s21.3-63.9,42.6-63.9c21.3,0,21.3,63.9,42.6,63.9c21.3,0,21.3-63.9,42.6-63.9c21.3,0,21.3,63.9,42.6,63.9
		c21.3,0,21.3-63.9,42.6-63.9c21.3,0,21.3,63.9,42.6,63.9c21.3,0,21.3-63.9,42.6-63.9c21.3,0,21.3,63.9,42.6,63.9
		c21.3,0,21.3-63.9,42.6-63.9c21.3,0,21.3,63.9,42.6,63.9c21.3,0,21.3-63.9,42.6-63.9c21.3,0,21.3,63.9,42.6,63.9
		c21.3,0,21.3-63.9,42.6-63.9c21.3,0,21.3,63.9,42.6,63.9c21.3,0,21.3-63.9,42.6-63.9c21.3,0,21.3,63.9,42.6,63.9
		c21.3,0,21.3-63.9,42.6-63.9c21.3,0,21.3,63.9,42.7,63.9c21.3,0,9.7-51.6,29-60.8c9.1-4.3,45.6,18.7,45.6,8.6
		c0-10.1-63.9-10.1-63.9-20.2c0-10.1,63.9-10.1,63.9-20.2c0-10.1-63.9-10.1-63.9-20.2c0-10.1,63.9-10.1,63.9-20.2
		c0-10.1-63.9-10.1-63.9-20.2c0-10.1,63.9-10.1,63.9-20.2c0-10.1-63.9-10.1-63.9-20.2c0-10.1,63.9-10.1,63.9-20.2
		c0-10.1-63.9-10.1-63.9-20.2c0-10.1,63.9-10.1,63.9-20.2c0-10.1-63.9-10.1-63.9-20.2c0-10.1,63.9-10.1,63.9-20.2
		c0-10.1-63.9-10.1-63.9-20.2c0-10.1,63.9-10.1,63.9-20.2c0-10.1-63.9-10.1-63.9-20.2c0-10.1,63.9-10.1,63.9-20.2
		c0-10.1-63.9-10.1-63.9-20.2c0-10.1,63.9-10.1,63.9-20.2c0-10.1-63.9-10.1-63.9-20.2c0-10.1,63.9-10.1,63.9-20.2
		c0-10.1-63.9-10.1-63.9-20.2c0-10.1,63.9-10.1,63.9-20.2c0-10.1-63.9-10.1-63.9-20.2c0-10.1,63.9-10.1,63.9-20.2
		c0-10.1-63.9-10.1-63.9-20.2c0-10.1,63.9-10.1,63.9-20.2c0-10.1-63.9-10.1-63.9-20.2c0-10.1,63.9-10.1,63.9-20.2
		c0-10.1-63.9-10.1-63.9-20.2c0-10.1,65.4-20.1,62.4-29.8C-3097,426.7-3129.6,456.7-3138.8,452.4z"/>
</g>
<path class="st2" d="M-4826,165v1080h1921V165H-4826z M-3732.3,953l-43.1-117.4h-184.8l-39.6,117.4h-91l0.7-2l174.5-494h99.4l0.3,1
	l176.5,495H-3732.3z"/>
<polygon class="st0" points="-8185.9,-625 -4803.9,-625 -6506.1,-2135.4 "/>
<polygon points="-4886.8,-1843 -4771.3,-1843 -4829.1,-2008.2 "/>
<polygon points="-4597.8,-2197 -4482.3,-2197 -4540.1,-2362.2 "/>
<rect x="-4607" y="-2179" width="134" height="8.8"/>
<rect x="-4607" y="-2126" width="67" height="8.8"/>
<rect x="-4607" y="-2073" width="67" height="8.8"/>
<line class="st3" x1="-2368" y1="-2044.5" x2="-4289" y2="-2044.5"/>
<line class="st3" x1="-2368" y1="-1756.5" x2="-3392" y2="-1756.5"/>
<line class="st3" x1="-3328" y1="-1925.5" x2="-4289" y2="-1925.5"/>
<line class="st3" x1="-3378.3" y1="-2044.5" x2="-3659.8" y2="-1241.7"/>
<line class="st3" x1="-3329.6" y1="-1929" x2="-3571.9" y2="-1241.7"/>
<line class="st3" x1="-3195.3" y1="-1548" x2="-3328.5" y2="-1927.8"/>
<line class="st3" x1="-2368" y1="-1547.5" x2="-4289" y2="-1547.5"/>
<line class="st3" x1="-2368" y1="-1665.5" x2="-4289" y2="-1665.5"/>
<image style="overflow:visible;" width="2842" height="1606" xlink:href="../../Screenshots/Screenshot 2017-03-14 14.29.34.png"  transform="matrix(0.6735 0 0 0.6735 -6860.9912 -1667.9906)">
</image>
<text transform="matrix(1 0 0 1 -2661.5 -2263.5)"><tspan x="0" y="0" style="font-family:'Roboto-Light'; font-size:16px;">home </tspan><tspan x="44.1" y="0" style="font-family:'Roboto-Light'; font-size:16px; letter-spacing:24;">	</tspan><tspan x="72" y="0" style="font-family:'Roboto-Light'; font-size:16px; letter-spacing:32;">	</tspan><tspan x="108" y="0" style="font-family:'Roboto-Light'; font-size:16px;">lab </tspan><tspan x="132.9" y="0" style="font-family:'Roboto-Light'; font-size:16px; letter-spacing:7;">	</tspan><tspan x="144" y="0" style="font-family:'Roboto-Light'; font-size:16px; letter-spacing:32;">	</tspan><tspan x="180" y="0" style="font-family:'Roboto-Light'; font-size:16px;">contact</tspan></text>
<g>
	<path d="M-4153.5-2271.8c2.7-1.2,4.1-3.4,4.1-6.6c-0.1-2.2-0.9-4-2.3-5.2c-1.2-1.1-2.8-1.6-4.8-1.6h-8.1v22.5h4v-8.5h3.1l4,8.5h4.3
		L-4153.5-2271.8z M-4153.3-2278.5l0,0.2c-0.1,1.5-1.3,2.7-2.9,2.7h-4.4v-5.3h4.4C-4154.6-2280.9-4153.3-2279.9-4153.3-2278.5z"/>
	<path d="M-4221.5-2285.2h-4.5l-7.9,22.4l0,0.1h4.3l1.8-5.3h8.2l2,5.3h4.2L-4221.5-2285.2L-4221.5-2285.2z M-4221-2272.1h-5.6
		l2.8-7.8L-4221-2272.1z"/>
	<polygon points="-4196.4,-2281.2 -4191.1,-2281.2 -4191.1,-2262.7 -4187,-2262.7 -4187,-2281.2 -4181.7,-2281.2 -4181.7,-2285.2 
		-4196.4,-2285.2 	"/>
	<polygon points="-4179.3,-2262.7 -4167,-2262.7 -4167,-2266.8 -4175.1,-2266.8 -4175.1,-2272 -4167,-2272 -4167,-2276 
		-4175.1,-2276 -4175.1,-2281.2 -4167,-2281.2 -4167,-2285.2 -4179.3,-2285.2 	"/>
	<path d="M-4243.3-2262.4h2.6l-0.7,3.2h1.8l1.6-2.8c0.2-0.4,0.4-0.9,0.4-1.4v-4.7h-5.6V-2262.4z"/>
	<polygon points="-4211.2,-2262.7 -4207.1,-2262.7 -4207.1,-2272 -4198.8,-2272 -4198.8,-2276 -4207.1,-2276 -4207.1,-2281.2 
		-4198.8,-2281.2 -4198.8,-2285.2 -4211.2,-2285.2 	"/>
</g>
<polygon class="st4" points="-3279.1,-2044 -3378.5,-2044 -3553,-1550 -3553.7,-1548 -3462.7,-1548 -3423.2,-1665.4 
	-3238.4,-1665.4 -3195.3,-1548 -3102.3,-1548 -3278.8,-2043 "/>
<polygon class="st0" points="-3267.3,-1756.4 -3392,-1756.4 -3329.6,-1929 "/>
<text transform="matrix(1 0 0 1 -485.4983 -2263.5)"><tspan x="0" y="0" style="font-family:'Roboto-Light'; font-size:16px;">home </tspan><tspan x="44.1" y="0" style="font-family:'Roboto-Light'; font-size:16px; letter-spacing:24;">	</tspan><tspan x="72" y="0" style="font-family:'Roboto-Light'; font-size:16px; letter-spacing:32;">	</tspan><tspan x="108" y="0" style="font-family:'Roboto-Light'; font-size:16px;">lab </tspan><tspan x="132.9" y="0" style="font-family:'Roboto-Light'; font-size:16px; letter-spacing:7;">	</tspan><tspan x="144" y="0" style="font-family:'Roboto-Light'; font-size:16px; letter-spacing:32;">	</tspan><tspan x="180" y="0" style="font-family:'Roboto-Light'; font-size:16px;">contact</tspan></text>
<g>
	<path d="M-1977.5-2271.8c2.7-1.2,4.1-3.4,4.1-6.6c-0.1-2.2-0.8-4-2.3-5.2c-1.2-1.1-2.8-1.6-4.8-1.6h-8.1v22.5h4v-8.5h3.1l4,8.5h4.3
		L-1977.5-2271.8z M-1977.3-2278.5l0,0.2c-0.1,1.5-1.3,2.7-2.9,2.7h-4.4v-5.3h4.4C-1978.6-2280.9-1977.3-2279.9-1977.3-2278.5z"/>
	<path d="M-2045.5-2285.2h-4.5l-7.9,22.4l0,0.1h4.3l1.8-5.3h8.2l2,5.3h4.2L-2045.5-2285.2L-2045.5-2285.2z M-2045-2272.1h-5.6
		l2.8-7.8L-2045-2272.1z"/>
	<polygon points="-2020.4,-2281.2 -2015.1,-2281.2 -2015.1,-2262.7 -2011,-2262.7 -2011,-2281.2 -2005.7,-2281.2 -2005.7,-2285.2 
		-2020.4,-2285.2 	"/>
	<polygon points="-2003.3,-2262.7 -1991,-2262.7 -1991,-2266.8 -1999.1,-2266.8 -1999.1,-2272 -1991,-2272 -1991,-2276 
		-1999.1,-2276 -1999.1,-2281.2 -1991,-2281.2 -1991,-2285.2 -2003.3,-2285.2 	"/>
	<path d="M-2067.3-2262.4h2.6l-0.7,3.2h1.8l1.6-2.8c0.2-0.4,0.4-0.9,0.4-1.4v-4.7h-5.6V-2262.4z"/>
	<polygon points="-2035.2,-2262.7 -2031.1,-2262.7 -2031.1,-2272 -2022.8,-2272 -2022.8,-2276 -2031.1,-2276 -2031.1,-2281.2 
		-2022.8,-2281.2 -2022.8,-2285.2 -2035.2,-2285.2 	"/>
</g>
<line class="st3" x1="-2368" y1="-753.1" x2="-4289" y2="-753.1"/>
<line class="st3" x1="-2368" y1="-465.1" x2="-3397.9" y2="-465.1"/>
<line class="st3" x1="-3328.5" y1="-636.3" x2="-4289" y2="-634.1"/>
<line class="st3" x1="-3378.3" y1="-753.1" x2="-3659.8" y2="49.8"/>
<line class="st3" x1="-3290.4" y1="-753.1" x2="-3571.9" y2="49.8"/>
<line class="st3" x1="-3092.9" y1="35.4" x2="-3328.5" y2="-636.3"/>
<line class="st3" x1="-2368" y1="-256.1" x2="-4289" y2="-256.1"/>
<line class="st3" x1="-2368" y1="-374.1" x2="-4289" y2="-374.1"/>
<text transform="matrix(1 0 0 1 -2661.5 -972.0646)"><tspan x="0" y="0" style="font-family:'Roboto-Light'; font-size:16px;">home </tspan><tspan x="44.1" y="0" style="font-family:'Roboto-Light'; font-size:16px; letter-spacing:24;">	</tspan><tspan x="72" y="0" style="font-family:'Roboto-Light'; font-size:16px; letter-spacing:32;">	</tspan><tspan x="108" y="0" style="font-family:'Roboto-Light'; font-size:16px;">lab </tspan><tspan x="132.9" y="0" style="font-family:'Roboto-Light'; font-size:16px; letter-spacing:7;">	</tspan><tspan x="144" y="0" style="font-family:'Roboto-Light'; font-size:16px; letter-spacing:32;">	</tspan><tspan x="180" y="0" style="font-family:'Roboto-Light'; font-size:16px;">contact</tspan></text>
<g>
	<path d="M-4153.5-980.3c2.7-1.2,4.1-3.4,4.1-6.6c-0.1-2.2-0.9-4-2.3-5.2c-1.2-1.1-2.8-1.6-4.8-1.6h-8.1v22.5h4v-8.5h3.1l4,8.5h4.3
		L-4153.5-980.3z M-4153.3-987l0,0.2c-0.1,1.5-1.3,2.7-2.9,2.7h-4.4v-5.3h4.4C-4154.6-989.5-4153.3-988.4-4153.3-987z"/>
	<path d="M-4221.5-993.7h-4.5l-7.9,22.4l0,0.1h4.3l1.8-5.3h8.2l2,5.3h4.2L-4221.5-993.7L-4221.5-993.7z M-4221-980.7h-5.6l2.8-7.8
		L-4221-980.7z"/>
	<polygon points="-4196.4,-989.7 -4191.1,-989.7 -4191.1,-971.3 -4187,-971.3 -4187,-989.7 -4181.7,-989.7 -4181.7,-993.7 
		-4196.4,-993.7 	"/>
	<polygon points="-4179.3,-971.3 -4167,-971.3 -4167,-975.4 -4175.1,-975.4 -4175.1,-980.6 -4167,-980.6 -4167,-984.6 
		-4175.1,-984.6 -4175.1,-989.7 -4167,-989.7 -4167,-993.7 -4179.3,-993.7 	"/>
	<path d="M-4243.3-970.9h2.6l-0.7,3.2h1.8l1.6-2.8c0.2-0.4,0.4-0.9,0.4-1.4v-4.7h-5.6V-970.9z"/>
	<polygon points="-4211.2,-971.3 -4207.1,-971.3 -4207.1,-980.6 -4198.8,-980.6 -4198.8,-984.6 -4207.1,-984.6 -4207.1,-989.7 
		-4198.8,-989.7 -4198.8,-993.7 -4211.2,-993.7 	"/>
</g>
<path d="M-4599-226.7c17.9-8.2,27.1-23,27.4-44.1c-0.4-14.9-5.7-26.5-15.6-34.5c-8.3-7.1-19-10.7-31.9-10.7h-54V-166h26.6v-56.9
	h20.8l27,56.9h28.7L-4599-226.7z M-4597.5-271.3l0,1.3c-0.4,10-8.9,17.8-19.3,17.8h-29.6v-35.5h29.6
	C-4606-287.7-4597.7-280.7-4597.5-271.3z"/>
<polygon points="-4885.4,-289.5 -4849.9,-289.5 -4849.9,-166 -4822.4,-166 -4822.4,-289.5 -4786.8,-289.5 -4786.8,-316.1 
	-4885.4,-316.1 "/>
<polygon points="-4770.8,-166 -4689.1,-166 -4689.1,-193.5 -4743.3,-193.5 -4743.3,-228.2 -4689.1,-228.2 -4689.1,-254.8 
	-4743.3,-254.8 -4743.3,-289.5 -4689.1,-289.5 -4689.1,-316.1 -4770.8,-316.1 "/>
<path d="M-5198.6-163.8h17.5l-5,21.3h11.9l10.4-18.9c1.6-2.9,2.4-6.2,2.4-9.5V-202h-37.3V-163.8z"/>
<polygon points="-4984,-166 -4956.5,-166 -4956.5,-228.2 -4901.4,-228.2 -4901.4,-254.8 -4956.5,-254.8 -4956.5,-289.5 
	-4901.4,-289.5 -4901.4,-316.1 -4984,-316.1 "/>
<path d="M-4473.3-1616.3h12.6l-3.6,15.4h8.6l7.5-13.7c1.2-2.1,1.8-4.5,1.8-6.8v-22.4h-26.9V-1616.3z"/>
<polygon class="st5" points="-3279.1,-752.6 -3378.5,-752.6 -3553,-258.5 -3553.7,-256.6 -3462.7,-256.6 -3423.2,-374 -3238.4,-374 
	-3195.3,-256.6 -3102.3,-256.6 -3278.8,-751.6 "/>
<polygon class="st0" points="-3267.3,-464.9 -3392,-464.9 -3329.6,-637.6 "/>
<line class="st3" x1="-2368" y1="456.5" x2="-4289" y2="456.5"/>
<line class="st3" x1="-2905" y1="744.5" x2="-3934.8" y2="744.5"/>
<line class="st3" x1="-3865.5" y1="573.2" x2="-4826" y2="575.5"/>
<line class="st3" x1="-3915.3" y1="456.5" x2="-4196.8" y2="1259.3"/>
<line class="st3" x1="-3827.3" y1="456.5" x2="-4108.8" y2="1259.3"/>
<line class="st3" x1="-3629.8" y1="1245" x2="-3865.5" y2="573.2"/>
<line class="st3" x1="-2905" y1="953.5" x2="-4826" y2="953.5"/>
<line class="st3" x1="-2905" y1="835.5" x2="-4826" y2="835.5"/>
<text transform="matrix(1 0 0 1 -2661.5 237.5)"><tspan x="0" y="0" style="font-family:'Roboto-Light'; font-size:16px;">home </tspan><tspan x="44.1" y="0" style="font-family:'Roboto-Light'; font-size:16px; letter-spacing:24;">	</tspan><tspan x="72" y="0" style="font-family:'Roboto-Light'; font-size:16px; letter-spacing:32;">	</tspan><tspan x="108" y="0" style="font-family:'Roboto-Light'; font-size:16px;">lab </tspan><tspan x="132.9" y="0" style="font-family:'Roboto-Light'; font-size:16px; letter-spacing:7;">	</tspan><tspan x="144" y="0" style="font-family:'Roboto-Light'; font-size:16px; letter-spacing:32;">	</tspan><tspan x="180" y="0" style="font-family:'Roboto-Light'; font-size:16px;">contact</tspan></text>
<g>
	<path d="M-4153.5,229.2c2.7-1.2,4.1-3.4,4.1-6.6c-0.1-2.2-0.9-4-2.3-5.2c-1.2-1.1-2.8-1.6-4.8-1.6h-8.1v22.5h4v-8.5h3.1l4,8.5h4.3
		L-4153.5,229.2z M-4153.3,222.5l0,0.2c-0.1,1.5-1.3,2.7-2.9,2.7h-4.4v-5.3h4.4C-4154.6,220.1-4153.3,221.1-4153.3,222.5z"/>
	<path d="M-4221.5,215.8h-4.5l-7.9,22.4l0,0.1h4.3l1.8-5.3h8.2l2,5.3h4.2L-4221.5,215.8L-4221.5,215.8z M-4221,228.9h-5.6l2.8-7.8
		L-4221,228.9z"/>
	<polygon points="-4196.4,219.8 -4191.1,219.8 -4191.1,238.3 -4187,238.3 -4187,219.8 -4181.7,219.8 -4181.7,215.8 -4196.4,215.8 	
		"/>
	<polygon points="-4179.3,238.3 -4167,238.3 -4167,234.2 -4175.1,234.2 -4175.1,229 -4167,229 -4167,225 -4175.1,225 -4175.1,219.8 
		-4167,219.8 -4167,215.8 -4179.3,215.8 	"/>
	<path d="M-4243.3,238.6h2.6l-0.7,3.2h1.8l1.6-2.8c0.2-0.4,0.4-0.9,0.4-1.4v-4.7h-5.6V238.6z"/>
	<polygon points="-4211.2,238.3 -4207.1,238.3 -4207.1,229 -4198.8,229 -4198.8,225 -4207.1,225 -4207.1,219.8 -4198.8,219.8 
		-4198.8,215.8 -4211.2,215.8 	"/>
</g>
<polygon class="st0" points="-3804.3,744.6 -3928.9,744.6 -3866.6,572 "/>
<path d="M-4358.6,1677.8c12.7-5.8,19.3-16.3,19.5-31.3c-0.3-10.6-4-18.8-11.1-24.5c-5.9-5.1-13.5-7.6-22.6-7.6h-38.4V1721h18.9
	v-40.4h14.8l19.2,40.4h20.4L-4358.6,1677.8z M-4357.5,1646.2l0,1c-0.3,7.1-6.3,12.6-13.7,12.6h-21v-25.2h21
	C-4363.5,1634.5-4357.6,1639.5-4357.5,1646.2z"/>
<polygon points="-4562,1633.3 -4536.7,1633.3 -4536.7,1721 -4517.2,1721 -4517.2,1633.3 -4491.9,1633.3 -4491.9,1614.3 
	-4562,1614.3 "/>
<polygon points="-4480.6,1721 -4422.5,1721 -4422.5,1701.4 -4461,1701.4 -4461,1676.8 -4422.5,1676.8 -4422.5,1657.9 -4461,1657.9 
	-4461,1633.3 -4422.5,1633.3 -4422.5,1614.3 -4480.6,1614.3 "/>
<path d="M-4717.8,1779.9h2.1c2.9,0,5.1,2.7,4.5,5.6l-0.9,3.9c-0.7,2.9,1.5,5.6,4.5,5.6l0,0c1.7,0,3.2-0.9,4-2.4l5.5-10.1
	c1.5-2.7,2.3-5.8,2.3-9v-16.3c0-2.5-2-4.6-4.6-4.6h-17.4c-2.5,0-4.6,2-4.6,4.6v18C-4722.4,1777.9-4720.4,1779.9-4717.8,1779.9z"/>
<path d="M-4724.1,1780.6h-2.1c-2.9,0-5.1,2.7-4.5,5.6l0.9,3.9c0.7,2.9-1.5,5.6-4.5,5.6l0,0c-1.7,0-3.2-0.9-4-2.4l-5.5-10.1
	c-1.5-2.7-2.3-5.8-2.3-9V1758c0-2.5,2-4.6,4.6-4.6h17.4c2.5,0,4.6,2,4.6,4.6v18C-4719.5,1778.5-4721.6,1780.6-4724.1,1780.6z"/>
<path d="M-4724.1,1714.6h-2.1c-2.9,0-5.1-2.7-4.5-5.6l0.9-3.9c0.7-2.9-1.5-5.6-4.5-5.6l0,0c-1.7,0-3.2,0.9-4,2.4l-5.5,10.1
	c-1.5,2.7-2.3,5.8-2.3,9v16.3c0,2.5,2,4.6,4.6,4.6h17.4c2.5,0,4.6-2,4.6-4.6v-18C-4719.5,1716.6-4721.6,1714.6-4724.1,1714.6z"/>
<path d="M-4717.8,1713.9h2.1c2.9,0,5.1-2.7,4.5-5.6l-0.9-3.9c-0.7-2.9,1.5-5.6,4.5-5.6l0,0c1.7,0,3.2,0.9,4,2.4l5.5,10.1
	c1.5,2.7,2.3,5.8,2.3,9v16.3c0,2.5-2,4.6-4.6,4.6h-17.4c-2.5,0-4.6-2-4.6-4.6v-18C-4722.4,1716-4720.4,1713.9-4717.8,1713.9z"/>
<path d="M-4779.4,1664.7h-2.1c-2.9,0-5.1-2.7-4.5-5.6l0.9-3.9c0.7-2.9-1.5-5.6-4.5-5.6l0,0c-1.7,0-3.2,0.9-4,2.4l-5.5,10.1
	c-1.5,2.7-2.3,5.8-2.3,9v16.3c0,2.5,2,4.6,4.6,4.6h17.4c2.5,0,4.6-2,4.6-4.6v-18C-4774.8,1666.7-4776.9,1664.7-4779.4,1664.7z"/>
<path d="M-4783.8,1664.7h2.1c2.9,0,5.1-2.7,4.5-5.6l-0.9-3.9c-0.7-2.9,1.5-5.6,4.5-5.6l0,0c1.7,0,3.2,0.9,4,2.4l5.5,10.1
	c1.5,2.7,2.3,5.8,2.3,9v16.3c0,2.5-2,4.6-4.6,4.6h-17.4c-2.5,0-4.6-2-4.6-4.6v-18C-4788.3,1666.7-4786.3,1664.7-4783.8,1664.7z"/>
<polygon points="-4632,1721 -4612.4,1721 -4612.4,1676.8 -4573.3,1676.8 -4573.3,1657.9 -4612.4,1657.9 -4612.4,1633.3 
	-4573.3,1633.3 -4573.3,1614.3 -4632,1614.3 "/>
<line class="st6" x1="-4794.3" y1="1673.7" x2="-4788.3" y2="1673.7"/>
<line class="st6" x1="-4777.8" y1="1673.7" x2="-4771.8" y2="1673.7"/>
<g>
	<g>
		<path class="st1" d="M-4787.4,1683.7c2.4,1.8,5.2,1.2,7.2-0.8c1.4-1.4-0.7-3.5-2.1-2.1c-1.2,1.2-2.2,1.4-3.6,0.3
			c-0.7-0.5-1.7-0.1-2.1,0.5C-4788.4,1682.4-4788.1,1683.2-4787.4,1683.7L-4787.4,1683.7z"/>
	</g>
</g>
<path class="st7" d="M-1105.8-2036.1"/>
<path class="st7" d="M-962.2-1627.2"/>
<line class="st8" x1="-1098.4" y1="-1795.1" x2="-1147.1" y2="-1933.9"/>
<rect x="-1211.8" y="1843.5" style="fill:none;" width="600.8" height="465"/>
<text transform="matrix(1 0 0 1 -1211.7651 1909.4739)"><tspan x="0" y="0" style="font-family:'Roboto-Bold'; font-size:88px;">we are digital </tspan><tspan x="0" y="86" style="font-family:'Roboto-Bold'; font-size:88px;">product studio.</tspan></text>
<line class="st5" x1="-1196.6" y1="-1795" x2="-1098.7" y2="-1795"/>
<line class="st5" x1="-1147.1" y1="-1933.5" x2="-1098.7" y2="-1795"/>
<line class="st5" x1="-1147.1" y1="-1933.9" x2="-1195.9" y2="-1794.8"/>
<text transform="matrix(1 0 0 1 -485.5 -1157.4999)"><tspan x="0" y="0" style="font-family:'Roboto-Light'; font-size:16px;">home </tspan><tspan x="44.1" y="0" style="font-family:'Roboto-Light'; font-size:16px; letter-spacing:24;">	</tspan><tspan x="72" y="0" style="font-family:'Roboto-Light'; font-size:16px; letter-spacing:32;">	</tspan><tspan x="108" y="0" style="font-family:'Roboto-Light'; font-size:16px;">lab </tspan><tspan x="132.9" y="0" style="font-family:'Roboto-Light'; font-size:16px; letter-spacing:7;">	</tspan><tspan x="144" y="0" style="font-family:'Roboto-Light'; font-size:16px; letter-spacing:32;">	</tspan><tspan x="180" y="0" style="font-family:'Roboto-Light'; font-size:16px;">contact</tspan></text>
<g>
	<path d="M-1977.5-1165.8c2.7-1.2,4.1-3.4,4.1-6.6c-0.1-2.2-0.8-4-2.3-5.2c-1.2-1.1-2.8-1.6-4.8-1.6h-8.1v22.5h4v-8.5h3.1l4,8.5h4.3
		L-1977.5-1165.8z M-1977.3-1172.5l0,0.2c-0.1,1.5-1.3,2.7-2.9,2.7h-4.4v-5.3h4.4C-1978.6-1174.9-1977.3-1173.9-1977.3-1172.5z"/>
	<path d="M-2045.5-1179.2h-4.5l-7.9,22.4l0,0.1h4.3l1.8-5.3h8.2l2,5.3h4.2L-2045.5-1179.2L-2045.5-1179.2z M-2045-1166.1h-5.6
		l2.8-7.8L-2045-1166.1z"/>
	<polygon points="-2020.4,-1175.2 -2015.1,-1175.2 -2015.1,-1156.7 -2011,-1156.7 -2011,-1175.2 -2005.7,-1175.2 -2005.7,-1179.2 
		-2020.4,-1179.2 	"/>
	<polygon points="-2003.3,-1156.7 -1991,-1156.7 -1991,-1160.8 -1999.1,-1160.8 -1999.1,-1166 -1991,-1166 -1991,-1170 
		-1999.1,-1170 -1999.1,-1175.2 -1991,-1175.2 -1991,-1179.2 -2003.3,-1179.2 	"/>
	<path d="M-2067.3-1156.4h2.6l-0.7,3.2h1.8l1.6-2.8c0.2-0.4,0.4-0.9,0.4-1.4v-4.7h-5.6V-1156.4z"/>
	<polygon points="-2035.2,-1156.7 -2031.1,-1156.7 -2031.1,-1166 -2022.8,-1166 -2022.8,-1170 -2031.1,-1170 -2031.1,-1175.2 
		-2022.8,-1175.2 -2022.8,-1179.2 -2035.2,-1179.2 	"/>
</g>
<path class="st9" d="M-1499.6-517.4h45.3l-12.8,55.3h30.9l27.1-49.1c4.1-7.5,6.3-16,6.3-24.6v-80.6h-96.8V-517.4z"/>
<line class="st10" x1="-2112" y1="-928.5" x2="-1107" y2="-928.5"/>
<line class="st11" x1="-1189.5" y1="-928.5" x2="-1107" y2="-928.5"/>
<line class="st3" x1="-1196.6" y1="-689" x2="-197" y2="-689"/>
<line class="st3" x1="-2112" y1="-616.5" x2="-196" y2="-616.5"/>
<line class="st3" x1="-2112" y1="-518.5" x2="-196" y2="-518.5"/>
<line class="st3" x1="-2117" y1="-827.5" x2="-1147.1" y2="-827.5"/>
<polyline class="st12" points="-1465.4,-144.7 -1370.8,-413.5 -1189.6,-928.7 "/>
<path class="st7" d="M-1105.8-930.1"/>
<path class="st7" d="M-962.2-521.2"/>
<line class="st12" x1="-913.1" y1="-381.7" x2="-1106.9" y2="-928.4"/>
<line class="st8" x1="-961.6" y1="-518.3" x2="-1106.9" y2="-928.4"/>
<line class="st12" x1="-908.4" y1="-148" x2="-1182.4" y2="-928.4"/>
<line class="st8" x1="-1098.4" y1="-689.1" x2="-1147.1" y2="-827.9"/>
<line class="st8" x1="-1038.4" y1="-518.3" x2="-1072.9" y2="-616.5"/>
<line class="st3" x1="-1147.1" y1="-827.9" x2="-1385.9" y2="-147.7"/>
<polygon class="st0" points="-1098.7,-689 -1196.6,-689 -1147.1,-827.9 "/>
<line class="st5" x1="-1334.1" y1="-518.4" x2="-1255.2" y2="-518.4"/>
<line class="st5" x1="-1038.2" y1="-518.4" x2="-961.4" y2="-518.4"/>
<line class="st5" x1="-1221" y1="-616.3" x2="-1073.5" y2="-616.3"/>
<line class="st5" x1="-1196.6" y1="-689" x2="-1098.7" y2="-689"/>
<line class="st5" x1="-1147.1" y1="-827.5" x2="-1098.7" y2="-689"/>
<line class="st11" x1="-1334" y1="-518.3" x2="-1189.6" y2="-928.7"/>
<line class="st5" x1="-1221.3" y1="-616.4" x2="-1255.7" y2="-518.5"/>
<line class="st5" x1="-1147.1" y1="-827.9" x2="-1195.9" y2="-688.8"/>
<text transform="matrix(1 0 0 1 -485.5 72.4995)"><tspan x="0" y="0" style="font-family:'Roboto-Light'; font-size:16px;">home </tspan><tspan x="44.1" y="0" style="font-family:'Roboto-Light'; font-size:16px; letter-spacing:24;">	</tspan><tspan x="72" y="0" style="font-family:'Roboto-Light'; font-size:16px; letter-spacing:32;">	</tspan><tspan x="108" y="0" style="font-family:'Roboto-Light'; font-size:16px;">lab </tspan><tspan x="132.9" y="0" style="font-family:'Roboto-Light'; font-size:16px; letter-spacing:7;">	</tspan><tspan x="144" y="0" style="font-family:'Roboto-Light'; font-size:16px; letter-spacing:32;">	</tspan><tspan x="180" y="0" style="font-family:'Roboto-Light'; font-size:16px;">contact</tspan></text>
<g>
	<path d="M-1977.5,64.2c2.7-1.2,4.1-3.4,4.1-6.6c-0.1-2.2-0.8-4-2.3-5.2c-1.2-1.1-2.8-1.6-4.8-1.6h-8.1v22.5h4v-8.5h3.1l4,8.5h4.3
		L-1977.5,64.2z M-1977.3,57.5l0,0.2c-0.1,1.5-1.3,2.7-2.9,2.7h-4.4v-5.3h4.4C-1978.6,55.1-1977.3,56.1-1977.3,57.5z"/>
	<path d="M-2045.5,50.8h-4.5l-7.9,22.4l0,0.1h4.3l1.8-5.3h8.2l2,5.3h4.2L-2045.5,50.8L-2045.5,50.8z M-2045,63.9h-5.6l2.8-7.8
		L-2045,63.9z"/>
	<polygon points="-2020.4,54.8 -2015.1,54.8 -2015.1,73.3 -2011,73.3 -2011,54.8 -2005.7,54.8 -2005.7,50.8 -2020.4,50.8 	"/>
	<polygon points="-2003.3,73.3 -1991,73.3 -1991,69.2 -1999.1,69.2 -1999.1,64 -1991,64 -1991,60 -1999.1,60 -1999.1,54.8 
		-1991,54.8 -1991,50.8 -2003.3,50.8 	"/>
	<path d="M-2067.3,73.6h2.6l-0.7,3.2h1.8l1.6-2.8c0.2-0.4,0.4-0.9,0.4-1.4v-4.7h-5.6V73.6z"/>
	<polygon points="-2035.2,73.3 -2031.1,73.3 -2031.1,64 -2022.8,64 -2022.8,60 -2031.1,60 -2031.1,54.8 -2022.8,54.8 -2022.8,50.8 
		-2035.2,50.8 	"/>
</g>
<line class="st10" x1="-2112" y1="301.5" x2="-1107" y2="301.5"/>
<line class="st11" x1="-1189.5" y1="301.5" x2="-1107" y2="301.5"/>
<line class="st3" x1="-1196.6" y1="541" x2="-197" y2="541"/>
<line class="st3" x1="-2112" y1="613.5" x2="-196" y2="613.5"/>
<line class="st3" x1="-2112" y1="711.5" x2="-196" y2="711.5"/>
<line class="st3" x1="-2117" y1="402.5" x2="-1147.1" y2="402.5"/>
<polyline class="st12" points="-1465.4,1085.3 -1370.8,816.5 -1189.6,301.3 "/>
<path class="st7" d="M-1105.8,299.9"/>
<path class="st7" d="M-962.2,708.8"/>
<line class="st12" x1="-913.1" y1="848.3" x2="-1106.9" y2="301.6"/>
<line class="st8" x1="-961.6" y1="711.7" x2="-1106.9" y2="301.6"/>
<line class="st12" x1="-908.4" y1="1082" x2="-1182.4" y2="301.6"/>
<line class="st8" x1="-1098.4" y1="540.9" x2="-1147.1" y2="402.1"/>
<line class="st8" x1="-1038.4" y1="711.7" x2="-1072.9" y2="613.5"/>
<line class="st3" x1="-1147.1" y1="402.1" x2="-1385.9" y2="1082.3"/>
<polygon class="st0" points="-1098.7,541 -1196.6,541 -1147.1,402.1 "/>
<line class="st5" x1="-1334.1" y1="711.6" x2="-1255.2" y2="711.6"/>
<line class="st5" x1="-1038.2" y1="711.6" x2="-961.4" y2="711.6"/>
<line class="st5" x1="-1221" y1="613.7" x2="-1073.5" y2="613.7"/>
<line class="st5" x1="-1196.6" y1="541" x2="-1098.7" y2="541"/>
<line class="st5" x1="-1147.1" y1="402.5" x2="-1098.7" y2="541"/>
<line class="st11" x1="-1334" y1="711.7" x2="-1189.6" y2="301.3"/>
<line class="st5" x1="-1221.3" y1="613.6" x2="-1255.7" y2="711.5"/>
<line class="st5" x1="-1147.1" y1="402.1" x2="-1195.9" y2="541.2"/>
<line class="st10" x1="0" y1="301.5" x2="1005" y2="301.5"/>
<line class="st11" x1="922.5" y1="301.5" x2="1005" y2="301.5"/>
<line class="st3" x1="915.4" y1="541" x2="1915" y2="541"/>
<line class="st3" x1="0" y1="613.5" x2="1916" y2="613.5"/>
<line class="st3" x1="0" y1="711.5" x2="1916" y2="711.5"/>
<line class="st3" x1="-5" y1="402.5" x2="964.9" y2="402.5"/>
<polyline class="st12" points="646.6,1085.3 741.2,816.5 922.4,301.3 "/>
<path class="st7" d="M1006.2,299.9"/>
<path class="st7" d="M1149.8,708.8"/>
<line class="st12" x1="1198.9" y1="848.3" x2="1005.1" y2="301.6"/>
<line class="st8" x1="1150.4" y1="711.7" x2="1005.1" y2="301.6"/>
<line class="st12" x1="1203.6" y1="1082" x2="929.6" y2="301.6"/>
<line class="st8" x1="1013.6" y1="540.9" x2="964.9" y2="402.1"/>
<line class="st8" x1="1073.6" y1="711.7" x2="1039.1" y2="613.5"/>
<line class="st3" x1="964.9" y1="402.1" x2="726.1" y2="1082.3"/>
<line class="st5" x1="777.9" y1="711.6" x2="856.8" y2="711.6"/>
<line class="st5" x1="1073.8" y1="711.6" x2="1150.6" y2="711.6"/>
<line class="st5" x1="891" y1="613.7" x2="1038.5" y2="613.7"/>
<line class="st5" x1="964.9" y1="402.5" x2="1013.3" y2="541"/>
<line class="st11" x1="778" y1="711.7" x2="922.4" y2="301.3"/>
<line class="st5" x1="890.7" y1="613.6" x2="856.3" y2="711.5"/>
<line class="st5" x1="964.9" y1="402.1" x2="916.1" y2="541.2"/>
<text transform="matrix(1 0 0 1 -485.5 1380.438)"><tspan x="0" y="0" style="font-family:'Roboto-Light'; font-size:16px;">home </tspan><tspan x="44.1" y="0" style="font-family:'Roboto-Light'; font-size:16px; letter-spacing:24;">	</tspan><tspan x="72" y="0" style="font-family:'Roboto-Light'; font-size:16px; letter-spacing:32;">	</tspan><tspan x="108" y="0" style="font-family:'Roboto-Light'; font-size:16px;">lab </tspan><tspan x="132.9" y="0" style="font-family:'Roboto-Light'; font-size:16px; letter-spacing:7;">	</tspan><tspan x="144" y="0" style="font-family:'Roboto-Light'; font-size:16px; letter-spacing:32;">	</tspan><tspan x="180" y="0" style="font-family:'Roboto-Light'; font-size:16px;">contact</tspan></text>
<g>
	<path d="M-1977.5,1372.2c2.7-1.2,4.1-3.4,4.1-6.6c-0.1-2.2-0.8-4-2.3-5.2c-1.2-1.1-2.8-1.6-4.8-1.6h-8.1v22.5h4v-8.5h3.1l4,8.5h4.3
		L-1977.5,1372.2z M-1977.3,1365.5l0,0.2c-0.1,1.5-1.3,2.7-2.9,2.7h-4.4v-5.3h4.4C-1978.6,1363-1977.3,1364.1-1977.3,1365.5z"/>
	<path d="M-2045.5,1358.8h-4.5l-7.9,22.4l0,0.1h4.3l1.8-5.3h8.2l2,5.3h4.2L-2045.5,1358.8L-2045.5,1358.8z M-2045,1371.8h-5.6
		l2.8-7.8L-2045,1371.8z"/>
	<polygon points="-2020.4,1362.8 -2015.1,1362.8 -2015.1,1381.3 -2011,1381.3 -2011,1362.8 -2005.7,1362.8 -2005.7,1358.8 
		-2020.4,1358.8 	"/>
	<polygon points="-2003.3,1381.3 -1991,1381.3 -1991,1377.1 -1999.1,1377.1 -1999.1,1371.9 -1991,1371.9 -1991,1368 -1999.1,1368 
		-1999.1,1362.8 -1991,1362.8 -1991,1358.8 -2003.3,1358.8 	"/>
	<path d="M-2067.3,1381.6h2.6l-0.7,3.2h1.8l1.6-2.8c0.2-0.4,0.4-0.9,0.4-1.4v-4.7h-5.6V1381.6z"/>
	<polygon points="-2035.2,1381.3 -2031.1,1381.3 -2031.1,1371.9 -2022.8,1371.9 -2022.8,1368 -2031.1,1368 -2031.1,1362.8 
		-2022.8,1362.8 -2022.8,1358.8 -2035.2,1358.8 	"/>
</g>
<line class="st10" x1="-2621.4" y1="1643.3" x2="-1503.4" y2="1643.3"/>
<line class="st11" x1="-1595.1" y1="1643.3" x2="-1503.4" y2="1643.3"/>
<line class="st3" x1="-1603" y1="1909.8" x2="-491.1" y2="1909.8"/>
<line class="st3" x1="-2621.4" y1="1990.4" x2="-489.9" y2="1990.4"/>
<line class="st3" x1="-2621.4" y1="2099.5" x2="-489.9" y2="2099.5"/>
<line class="st3" x1="-2627" y1="1755.7" x2="-1548" y2="1755.7"/>
<polyline class="st12" points="-1902.1,2515.3 -1796.9,2216.2 -1595.3,1643.1 "/>
<path class="st7" d="M-1502.1,1641.6"/>
<path class="st7" d="M-1342.3,2096.4"/>
<line class="st12" x1="-1287.7" y1="2251.7" x2="-1503.3" y2="1643.5"/>
<line class="st8" x1="-1341.6" y1="2099.7" x2="-1503.3" y2="1643.5"/>
<line class="st12" x1="-1282.5" y1="2511.6" x2="-1587.3" y2="1643.5"/>
<line class="st8" x1="-1493.8" y1="1909.7" x2="-1548" y2="1755.3"/>
<line class="st8" x1="-1427.1" y1="2099.7" x2="-1465.5" y2="1990.4"/>
<line class="st3" x1="-1548" y1="1755.3" x2="-1813.6" y2="2512"/>
<line class="st5" x1="-1756" y1="2099.6" x2="-1668.3" y2="2099.6"/>
<line class="st5" x1="-1426.9" y1="2099.6" x2="-1341.5" y2="2099.6"/>
<line class="st5" x1="-1630.3" y1="1990.7" x2="-1466.1" y2="1990.7"/>
<line class="st5" x1="-1603" y1="1909.8" x2="-1494.1" y2="1909.8"/>
<line class="st5" x1="-1548" y1="1755.7" x2="-1494.1" y2="1909.8"/>
<line class="st11" x1="-1755.9" y1="2099.7" x2="-1595.3" y2="1643.1"/>
<line class="st5" x1="-1630.6" y1="1990.6" x2="-1668.8" y2="2099.4"/>
<line class="st5" x1="-1548" y1="1755.3" x2="-1602.4" y2="1910"/>
<circle class="st0" cx="-1148.1" cy="-1842.3" r="91.4"/>
<polyline class="st12" points="-1465.4,-1250.7 -1370.8,-1519.5 -1189.6,-2034.7 "/>
<line class="st12" x1="-913.1" y1="-1487.7" x2="-1106.9" y2="-2034.4"/>
<line class="st12" x1="-908.4" y1="-1254" x2="-1182.4" y2="-2034.4"/>
<line class="st3" x1="-1147.1" y1="-1933.9" x2="-1385.9" y2="-1253.7"/>
<line class="st3" x1="-1196.6" y1="-1795" x2="-197" y2="-1795"/>
<line class="st3" x1="-2112" y1="-1722.5" x2="-196" y2="-1722.5"/>
<line class="st3" x1="-2112" y1="-1624.5" x2="-196" y2="-1624.5"/>
<line class="st10" x1="-2112" y1="-2034.5" x2="-1107" y2="-2034.5"/>
<line class="st3" x1="-2117" y1="-1933.5" x2="-1147.1" y2="-1933.5"/>
<text transform="matrix(1 0 0 1 1617.3965 -2263.5)"><tspan x="0" y="0" style="font-family:'Roboto-Light'; font-size:16px;">home </tspan><tspan x="44.1" y="0" style="font-family:'Roboto-Light'; font-size:16px; letter-spacing:24;">	</tspan><tspan x="72" y="0" style="font-family:'Roboto-Light'; font-size:16px; letter-spacing:32;">	</tspan><tspan x="108" y="0" style="font-family:'Roboto-Light'; font-size:16px;">lab </tspan><tspan x="132.9" y="0" style="font-family:'Roboto-Light'; font-size:16px; letter-spacing:7;">	</tspan><tspan x="144" y="0" style="font-family:'Roboto-Light'; font-size:16px; letter-spacing:32;">	</tspan><tspan x="180" y="0" style="font-family:'Roboto-Light'; font-size:16px;">contact</tspan></text>
<g>
	<path d="M125.4-2271.8c2.7-1.2,4.1-3.4,4.1-6.6c-0.1-2.2-0.8-4-2.3-5.2c-1.2-1.1-2.8-1.6-4.8-1.6h-8.1v22.5h4v-8.5h3.1l4,8.5h4.3
		L125.4-2271.8z M125.6-2278.5l0,0.2c-0.1,1.5-1.3,2.7-2.9,2.7h-4.4v-5.3h4.4C124.3-2280.9,125.6-2279.9,125.6-2278.5z"/>
	<path d="M57.4-2285.2h-4.5l-7.9,22.4l0,0.1h4.3l1.8-5.3h8.2l2,5.3h4.2L57.4-2285.2L57.4-2285.2z M57.9-2272.1h-5.6l2.8-7.8
		L57.9-2272.1z"/>
	<polygon points="82.5,-2281.2 87.8,-2281.2 87.8,-2262.7 91.9,-2262.7 91.9,-2281.2 97.2,-2281.2 97.2,-2285.2 82.5,-2285.2 	"/>
	<polygon points="99.6,-2262.7 111.9,-2262.7 111.9,-2266.8 103.8,-2266.8 103.8,-2272 111.9,-2272 111.9,-2276 103.8,-2276 
		103.8,-2281.2 111.9,-2281.2 111.9,-2285.2 99.6,-2285.2 	"/>
	<path d="M35.6-2262.4h2.6l-0.7,3.2h1.8l1.6-2.8c0.2-0.4,0.4-0.9,0.4-1.4v-4.7h-5.6V-2262.4z"/>
	<polygon points="67.7,-2262.7 71.8,-2262.7 71.8,-2272 80.1,-2272 80.1,-2276 71.8,-2276 71.8,-2281.2 80.1,-2281.2 80.1,-2285.2 
		67.7,-2285.2 	"/>
</g>
<g>
	<path class="st0" d="M-1297.6,1878.7c-2.3,60.6-82.7,89.8-123.9,128s-76.5,116.1-137.1,113.8c-60.6-2.3-89.8-82.7-128-123.9
		s-116.1-76.5-113.8-137.1c2.3-60.6,82.7-89.8,123.9-128c41.2-38.2,76.5-116.1,137.1-113.8c60.6,2.3,89.8,82.7,128,123.9
		C-1373.2,1782.9-1295.3,1818.2-1297.6,1878.7z"/>
</g>
<path d="M-1503.5,1642.1l-0.3-0.9h-92.4l-162.2,459.2l-0.6,1.8h88.3l36.8-109.1h168l40.1,109.1h86.4L-1503.5,1642.1z
	 M-1604.1,1910.1l55.7-156.4l54.5,156.4H-1604.1z"/>
<text transform="matrix(1 0 0 1 -485.5 2670.2444)"><tspan x="0" y="0" style="font-family:'Roboto-Light'; font-size:16px;">home </tspan><tspan x="44.1" y="0" style="font-family:'Roboto-Light'; font-size:16px; letter-spacing:24;">	</tspan><tspan x="72" y="0" style="font-family:'Roboto-Light'; font-size:16px; letter-spacing:32;">	</tspan><tspan x="108" y="0" style="font-family:'Roboto-Light'; font-size:16px;">lab </tspan><tspan x="132.9" y="0" style="font-family:'Roboto-Light'; font-size:16px; letter-spacing:7;">	</tspan><tspan x="144" y="0" style="font-family:'Roboto-Light'; font-size:16px; letter-spacing:32;">	</tspan><tspan x="180" y="0" style="font-family:'Roboto-Light'; font-size:16px;">contact</tspan></text>
<g>
	<path d="M-1977.5,2662c2.7-1.2,4.1-3.4,4.1-6.6c-0.1-2.2-0.8-4-2.3-5.2c-1.2-1.1-2.8-1.6-4.8-1.6h-8.1v22.5h4v-8.5h3.1l4,8.5h4.3
		L-1977.5,2662z M-1977.3,2655.3l0,0.2c-0.1,1.5-1.3,2.7-2.9,2.7h-4.4v-5.3h4.4C-1978.6,2652.8-1977.3,2653.9-1977.3,2655.3z"/>
	<path d="M-2045.5,2648.6h-4.5l-7.9,22.4l0,0.1h4.3l1.8-5.3h8.2l2,5.3h4.2L-2045.5,2648.6L-2045.5,2648.6z M-2045,2661.6h-5.6
		l2.8-7.8L-2045,2661.6z"/>
	<polygon points="-2020.4,2652.6 -2015.1,2652.6 -2015.1,2671.1 -2011,2671.1 -2011,2652.6 -2005.7,2652.6 -2005.7,2648.6 
		-2020.4,2648.6 	"/>
	<polygon points="-2003.3,2671.1 -1991,2671.1 -1991,2666.9 -1999.1,2666.9 -1999.1,2661.7 -1991,2661.7 -1991,2657.8 
		-1999.1,2657.8 -1999.1,2652.6 -1991,2652.6 -1991,2648.6 -2003.3,2648.6 	"/>
	<path d="M-2067.3,2671.4h2.6l-0.7,3.2h1.8l1.6-2.8c0.2-0.4,0.4-0.9,0.4-1.4v-4.7h-5.6V2671.4z"/>
	<polygon points="-2035.2,2671.1 -2031.1,2671.1 -2031.1,2661.7 -2022.8,2661.7 -2022.8,2657.8 -2031.1,2657.8 -2031.1,2652.6 
		-2022.8,2652.6 -2022.8,2648.6 -2035.2,2648.6 	"/>
</g>
<path class="st7" d="M-1452.1,2931.4"/>
<path class="st7" d="M-1282.3,3386.2"/>
<rect x="-1657.2" y="3137.7" class="st1" width="951.7" height="100.9"/>
<rect x="-1702" y="3251" class="st1" width="1104.7" height="100.9"/>
<g>
	<path d="M-2345.1,3524.2h78.9l-22.3,96.2h53.7l47.1-85.5c7.2-13.1,11-27.9,11-42.9v-140.3h-168.4V3524.2z"/>
	<path d="M-1722.1,2807.2l-0.5-1.4h-144.5l-253.7,718.3l-1,2.8h138.1l57.5-170.7h262.8l62.7,170.7h135.2L-1722.1,2807.2z
		 M-1879.6,3226.4l87.1-244.6l85.3,244.6H-1879.6z"/>
</g>
<g>
	<rect x="-1434.9" y="3137.7" style="fill:none;" width="966.1" height="554.3"/>
	<text transform="matrix(1 0 0 1 -1434.8787 3227.7451)"><tspan x="0" y="0" style="font-family:'Roboto-Bold'; font-size:120px;">we are digital </tspan><tspan x="0" y="110" style="font-family:'Roboto-Bold'; font-size:120px;">product studio.</tspan></text>
</g>
<line class="st11" x1="915.4" y1="541" x2="1013.3" y2="541"/>
<circle class="st0" cx="964.5" cy="463.5" r="92.5"/>
</svg>
