<?xml version="1.0" encoding="utf-8"?>
<!-- Generator: Adobe Illustrator 19.0.0, SVG Export Plug-In . SVG Version: 6.00 Build 0)  -->
<svg version="1.1" id="Layer_1" xmlns="http://www.w3.org/2000/svg" xmlns:xlink="http://www.w3.org/1999/xlink" x="0px" y="0px"
	 viewBox="810 -415 1920 1080" style="enable-background:new 810 -415 1920 1080;" xml:space="preserve">
<style type="text/css">
	.st0{fill:#EF0744;}
	.st1{fill:#11EFB5;}
	.st2{fill:#FFFFFF;}
	.st3{fill:#FFFFFF;stroke:#0071BC;stroke-miterlimit:10;}
	.st4{opacity:0.2;fill:none;stroke:#0071BC;stroke-miterlimit:10;enable-background:new    ;}
	.st5{enable-background:new    ;}
	.st6{opacity:2.000000e-02;enable-background:new    ;}
	.st7{fill:none;stroke:#000000;stroke-miterlimit:10;}
	.st8{fill:none;stroke:#FFFFFF;stroke-miterlimit:10;}
	.st9{opacity:0.1;fill:none;stroke:#000000;stroke-width:0.3692;stroke-miterlimit:10;enable-background:new    ;}
	.st10{fill:none;stroke:#000000;stroke-linecap:round;stroke-miterlimit:10;}
	.st11{fill:none;}
	.st12{opacity:5.000000e-02;enable-background:new    ;}
	
		.st13{opacity:0.2;fill:none;stroke:#0071BC;stroke-linecap:round;stroke-linejoin:round;stroke-miterlimit:10;enable-background:new    ;}
	.st14{fill:none;stroke:#000000;stroke-linecap:round;stroke-linejoin:round;stroke-miterlimit:10;}
	.st15{opacity:0.2;fill:none;stroke:#0071BC;stroke-linecap:round;stroke-miterlimit:10;enable-background:new    ;}
</style>
<circle class="st0" cx="1774.5" cy="50.5" r="91.5"/>
<g>
	<polygon class="st1" points="1726.8,125.8 1823.8,125.8 1774.8,-13.8 	"/>
	<path class="st1" d="M810-415V665h1920V-415H810z M1882.8,296.3l-34-97.4H1700l-34,97.4h-78.2L1732-113.2l83.2-0.2l145.2,409.7
		H1882.8z"/>
</g>
<rect x="-1302" y="2182.7" class="st0" width="1920" height="1080"/>
<g>
	<path d="M365.9,479.7c-29.5,7.2-33.2-23.7-63.6-23.7c-30.4,0-30.4,24-60.7,24c-30.4,0-30.4-24-60.7-24c-30.4,0-30.4,24-60.7,24
		c-30.4,0-30.4-24-60.7-24c-30.4,0-30.4,24-60.7,24c-30.4,0-30.4-24-60.7-24c-30.4,0-30.4,24-60.7,24c-30.4,0-30.4-24-60.7-24
		c-30.4,0-30.4,24-60.7,24c-30.4,0-30.4-24-60.7-24c-30.4,0-30.4,24-60.7,24c-30.4,0-30.4-24-60.7-24c-30.4,0-30.4,24-60.7,24
		c-30.4,0-30.4-24-60.7-24c-30.4,0-30.4,24-60.7,24c-30.4,0-30.4-24-60.7-24c-30.4,0-30.4,24-60.7,24c-30.4,0-30.4-24-60.7-24
		c-30.4,0-30.4,24-60.7,24c-30.4,0-30.4-24-60.7-24c-30.4,0-30.4,24-60.7,24s-28.4-16.4-57.9-23.7c-7.2-1.8-14.9,4.2-14.9-3.2
		s24-7.4,24-14.9c0-7.4-24-7.4-24-14.9c0-7.4,24-7.4,24-14.9s-24-7.4-24-14.9c0-7.4,24-7.4,24-14.9c0-7.4-24-7.4-24-14.9
		c0-7.4,24-7.4,24-14.9c0-7.4-24-7.4-24-14.9c0-7.4,24-7.4,24-14.9c0-7.4-24-7.4-24-14.9c0-7.4,24-7.4,24-14.9c0-7.4-24-7.4-24-14.9
		c0-7.4,24-7.4,24-14.9c0-7.4-24-7.4-24-14.9c0-7.4,24-7.4,24-14.9c0-7.4-24-7.4-24-14.9c0-7.4,24-7.4,24-14.9c0-7.4-24-7.4-24-14.9
		c0-7.4,24-7.4,24-14.9c0-7.4-24-7.4-24-14.9c0-7.4,24-7.4,24-14.9c0-7.4-22.1-24.8-14.9-26.5c29.5-7.2,33.2,23.7,63.6,23.7
		s30.4-24,60.7-24c30.4,0,30.4,24,60.7,24c30.4,0,30.4-24,60.7-24c30.4,0,30.4,24,60.7,24s30.4-24,60.7-24c30.4,0,30.4,24,60.7,24
		c30.4,0,30.4-24,60.7-24c30.4,0,30.4,24,60.7,24c30.4,0,30.4-24,60.7-24c30.4,0,30.4,24,60.7,24c30.4,0,30.4-24,60.7-24
		c30.4,0,30.4,24,60.7,24c30.4,0,30.4-24,60.7-24c30.4,0,30.4,24,60.7,24c30.4,0,30.4-24,60.7-24c30.4,0,30.4,24,60.7,24
		c30.4,0,30.4-24,60.7-24c30.4,0,30.4,24,60.7,24c30.4,0,30.4-24,60.7-24c30.4,0,30.4,24,60.7,24c30.4,0,30.4-24,60.7-24
		s28.4,16.4,57.9,23.7c7.2,1.8,14.9-4.2,14.9,3.2s-24,7.4-24,14.9c0,7.4,24,7.4,24,14.9c0,7.4-24,7.4-24,14.9c0,7.4,24,7.4,24,14.9
		c0,7.4-24,7.4-24,14.9c0,7.4,24,7.4,24,14.9c0,7.4-24,7.4-24,14.9c0,7.4,24,7.4,24,14.9c0,7.4-24,7.4-24,14.9c0,7.4,24,7.4,24,14.9
		c0,7.4-24,7.4-24,14.9c0,7.4,24,7.4,24,14.9c0,7.4-24,7.4-24,14.9c0,7.4,24,7.4,24,14.9c0,7.4-24,7.4-24,14.9c0,7.4,24,7.4,24,14.9
		c0,7.4-24,7.4-24,14.9c0,7.4,24,7.4,24,14.9c0,7.4-24,7.4-24,14.9c0,7.4,24,7.4,24,14.9c0,7.4-25.5,10.6-23.6,17.8
		C355,469.9,373.2,477.9,365.9,479.7z"/>
</g>
<g>
	<polygon class="st2" points="-386.6,126 -288.7,126 -337.1,-12.9 	"/>
	<path class="st2" d="M-1302-415V667.3H618V-415H-1302z M-228.2,296.6l-35.6-96.9H-413l-32.7,96.9h-78.4l0.6-1.6l144.1-407.9h82
		l0.3,0.8l145.7,408.7H-228.2z"/>
</g>
<g>
	<path d="M-2328.8,37.4c-19.3-9.1-7.6-60.8-29-60.8c-21.3,0-21.3,63.9-42.6,63.9s-21.3-63.9-42.6-63.9s-21.3,63.9-42.6,63.9
		s-21.3-63.9-42.6-63.9s-21.3,63.9-42.6,63.9s-21.3-63.9-42.6-63.9s-21.3,63.9-42.6,63.9s-21.3-63.9-42.6-63.9s-21.3,63.9-42.6,63.9
		s-21.3-63.9-42.6-63.9s-21.3,63.9-42.6,63.9s-21.3-63.9-42.6-63.9s-21.3,63.9-42.6,63.9s-21.3-63.9-42.6-63.9s-21.3,63.9-42.6,63.9
		s-21.3-63.9-42.6-63.9s-21.3,63.9-42.6,63.9s-21.3-63.9-42.6-63.9s-21.3,63.9-42.6,63.9s-21.3-63.9-42.6-63.9s-21.3,63.9-42.6,63.9
		s-21.3-63.9-42.6-63.9s-21.3,63.9-42.6,63.9c-21.3,0-21.3-63.9-42.6-63.9c-21.3,0-21.3,63.9-42.6,63.9c-21.3,0-21.3-63.9-42.6-63.9
		c-21.3,0-21.3,63.9-42.6,63.9c-21.3,0-21.3-63.9-42.6-63.9c-21.3,0-21.3,63.9-42.6,63.9c-21.3,0-21.3-63.9-42.7-63.9
		s-9.7,51.6-29,60.8c-9.1,4.3-45.6-18.7-45.6-8.6s63.9,10.1,63.9,20.2s-63.9,10.1-63.9,20.2s63.9,10.1,63.9,20.2
		c0,10.1-63.9,10.1-63.9,20.2c0,10.1,63.9,10.1,63.9,20.2c0,10.1-63.9,10.1-63.9,20.2c0,10.1,63.9,10.1,63.9,20.2
		c0,10.1-63.9,10.1-63.9,20.2c0,10.1,63.9,10.1,63.9,20.2c0,10.1-63.9,10.1-63.9,20.2c0,10.1,63.9,10.1,63.9,20.2
		c0,10.1-63.9,10.1-63.9,20.2c0,10.1,63.9,10.1,63.9,20.2c0,10.1-63.9,10.1-63.9,20.2c0,10.1,63.9,10.1,63.9,20.2
		c0,10.1-63.9,10.1-63.9,20.2c0,10.1,63.9,10.1,63.9,20.2c0,10.1-63.9,10.1-63.9,20.2c0,10.1,63.9,10.1,63.9,20.2
		c0,10.1-63.9,10.1-63.9,20.2c0,10.1,63.9,10.1,63.9,20.2c0,10.1-63.9,10.1-63.9,20.2c0,10.1,63.9,10.1,63.9,20.2
		c0,10.1-63.9,10.1-63.9,20.2c0,10.1,63.9,10.1,63.9,20.2c0,10.1-63.9,10.1-63.9,20.2c0,10.1,63.9,10.1,63.9,20.2
		c0,10.1-63.9,10.1-63.9,20.2c0,10.1,63.9,10.1,63.9,20.2c0,10.1-63.9,10.1-63.9,20.2s36.5-13,45.6-8.6c19.3,9.1,7.6,60.8,29,60.8
		s21.3-63.9,42.6-63.9s21.3,63.9,42.6,63.9s21.3-63.9,42.6-63.9c21.3,0,21.3,63.9,42.6,63.9c21.3,0,21.3-63.9,42.6-63.9
		c21.3,0,21.3,63.9,42.6,63.9c21.3,0,21.3-63.9,42.6-63.9c21.3,0,21.3,63.9,42.6,63.9c21.3,0,21.3-63.9,42.6-63.9
		s21.3,63.9,42.6,63.9s21.3-63.9,42.6-63.9s21.3,63.9,42.6,63.9s21.3-63.9,42.6-63.9s21.3,63.9,42.6,63.9s21.3-63.9,42.6-63.9
		s21.3,63.9,42.6,63.9s21.3-63.9,42.6-63.9s21.3,63.9,42.6,63.9s21.3-63.9,42.6-63.9s21.3,63.9,42.6,63.9s21.3-63.9,42.6-63.9
		s21.3,63.9,42.6,63.9s21.3-63.9,42.6-63.9s21.3,63.9,42.6,63.9s21.3-63.9,42.6-63.9s21.3,63.9,42.6,63.9s21.3-63.9,42.6-63.9
		s21.3,63.9,42.6,63.9s21.3-63.9,42.6-63.9s21.3,63.9,42.7,63.9c21.3,0,9.7-51.6,29-60.8c9.1-4.3,45.6,18.7,45.6,8.6
		s-63.9-10.1-63.9-20.2s63.9-10.1,63.9-20.2c0-10.1-63.9-10.1-63.9-20.2c0-10.1,63.9-10.1,63.9-20.2c0-10.1-63.9-10.1-63.9-20.2
		c0-10.1,63.9-10.1,63.9-20.2c0-10.1-63.9-10.1-63.9-20.2c0-10.1,63.9-10.1,63.9-20.2c0-10.1-63.9-10.1-63.9-20.2
		c0-10.1,63.9-10.1,63.9-20.2c0-10.1-63.9-10.1-63.9-20.2c0-10.1,63.9-10.1,63.9-20.2c0-10.1-63.9-10.1-63.9-20.2
		c0-10.1,63.9-10.1,63.9-20.2c0-10.1-63.9-10.1-63.9-20.2c0-10.1,63.9-10.1,63.9-20.2c0-10.1-63.9-10.1-63.9-20.2
		c0-10.1,63.9-10.1,63.9-20.2c0-10.1-63.9-10.1-63.9-20.2c0-10.1,63.9-10.1,63.9-20.2c0-10.1-63.9-10.1-63.9-20.2
		c0-10.1,63.9-10.1,63.9-20.2c0-10.1-63.9-10.1-63.9-20.2c0-10.1,63.9-10.1,63.9-20.2c0-10.1-63.9-10.1-63.9-20.2
		c0-10.1,63.9-10.1,63.9-20.2c0-10.1-63.9-10.1-63.9-20.2c0-10.1,63.9-10.1,63.9-20.2s-63.9-10.1-63.9-20.2s65.4-20.1,62.4-29.8
		C-2287,11.7-2319.6,41.7-2328.8,37.4z"/>
</g>
<path class="st3" d="M-4016-250V830h1921V-250H-4016z M-2922.3,538l-43.1-117.4h-184.8l-39.6,117.4h-91l0.7-2l174.5-494h99.4l0.3,1
	l176.5,495H-2922.3z"/>
<polygon class="st0" points="-7375.9,-1040 -3993.9,-1040 -5696.1,-2550.4 "/>
<polygon points="-4076.8,-2258 -3961.3,-2258 -4019.1,-2423.2 "/>
<polygon points="-3787.8,-2612 -3672.3,-2612 -3730.1,-2777.2 "/>
<rect x="-3797" y="-2594" width="134" height="8.8"/>
<rect x="-3797" y="-2541" width="67" height="8.8"/>
<rect x="-3797" y="-2488" width="67" height="8.8"/>
<line class="st4" x1="-1558" y1="-2459.5" x2="-3479" y2="-2459.5"/>
<line class="st4" x1="-1558" y1="-2171.5" x2="-2582" y2="-2171.5"/>
<line class="st4" x1="-2518" y1="-2340.5" x2="-3479" y2="-2340.5"/>
<line class="st4" x1="-2568.3" y1="-2459.5" x2="-2849.8" y2="-1656.7"/>
<line class="st4" x1="-2519.6" y1="-2344" x2="-2761.9" y2="-1656.7"/>
<line class="st4" x1="-2385.3" y1="-1963" x2="-2518.5" y2="-2342.8"/>
<line class="st4" x1="-1558" y1="-1962.5" x2="-3479" y2="-1962.5"/>
<line class="st4" x1="-1558" y1="-2080.5" x2="-3479" y2="-2080.5"/>
<image style="overflow:visible;enable-background:new    ;" width="2842" height="1606" xlink:href="../../Screenshots/Screenshot 2017-03-14 14.29.34.png"  transform="matrix(0.6735 0 0 0.6735 -6050.9912 -2082.9907)">
</image>
<text transform="matrix(1 0 0 1 -1851.5 -2678.5)" style="font-family:'Roboto-Light'; font-size:16px;">home </text>
<text transform="matrix(1 0 0 1 -1807.3999 -2678.5)" style="font-family:'Roboto-Light'; font-size:16px; letter-spacing:24;"> </text>
<text transform="matrix(1 0 0 1 -1779.5 -2678.5)" style="font-family:'Roboto-Light'; font-size:16px; letter-spacing:32;"> </text>
<text transform="matrix(1 0 0 1 -1743.5 -2678.5)" style="font-family:'Roboto-Light'; font-size:16px;">lab </text>
<text transform="matrix(1 0 0 1 -1718.6001 -2678.5)" style="font-family:'Roboto-Light'; font-size:16px; letter-spacing:6;"> </text>
<text transform="matrix(1 0 0 1 -1707.5 -2678.5)" style="font-family:'Roboto-Light'; font-size:16px; letter-spacing:32;"> </text>
<text transform="matrix(1 0 0 1 -1671.5 -2678.5)" style="font-family:'Roboto-Light'; font-size:16px;">contact</text>
<g>
	<path d="M-3343.5-2686.8c2.7-1.2,4.1-3.4,4.1-6.6c-0.1-2.2-0.9-4-2.3-5.2c-1.2-1.1-2.8-1.6-4.8-1.6h-8.1v22.5h4v-8.5h3.1l4,8.5h4.3
		L-3343.5-2686.8z M-3343.3-2693.5v0.2c-0.1,1.5-1.3,2.7-2.9,2.7h-4.4v-5.3h4.4C-3344.6-2695.9-3343.3-2694.9-3343.3-2693.5z"/>
	<path d="M-3411.5-2700.2h-4.5l-7.9,22.4v0.1h4.3l1.8-5.3h8.2l2,5.3h4.2L-3411.5-2700.2L-3411.5-2700.2z M-3411-2687.1h-5.6l2.8-7.8
		L-3411-2687.1z"/>
	<polygon points="-3386.4,-2696.2 -3381.1,-2696.2 -3381.1,-2677.7 -3377,-2677.7 -3377,-2696.2 -3371.7,-2696.2 -3371.7,-2700.2 
		-3386.4,-2700.2 	"/>
	<polygon points="-3369.3,-2677.7 -3357,-2677.7 -3357,-2681.8 -3365.1,-2681.8 -3365.1,-2687 -3357,-2687 -3357,-2691 
		-3365.1,-2691 -3365.1,-2696.2 -3357,-2696.2 -3357,-2700.2 -3369.3,-2700.2 	"/>
	<path d="M-3433.3-2677.4h2.6l-0.7,3.2h1.8l1.6-2.8c0.2-0.4,0.4-0.9,0.4-1.4v-4.7h-5.6L-3433.3-2677.4L-3433.3-2677.4z"/>
	<polygon points="-3401.2,-2677.7 -3397.1,-2677.7 -3397.1,-2687 -3388.8,-2687 -3388.8,-2691 -3397.1,-2691 -3397.1,-2696.2 
		-3388.8,-2696.2 -3388.8,-2700.2 -3401.2,-2700.2 	"/>
</g>
<polygon class="st6" points="-2469.1,-2459 -2568.5,-2459 -2743,-1965 -2743.7,-1963 -2652.7,-1963 -2613.2,-2080.4 
	-2428.4,-2080.4 -2385.3,-1963 -2292.3,-1963 -2468.8,-2458 "/>
<polygon class="st0" points="-2457.3,-2171.4 -2582,-2171.4 -2519.6,-2344 "/>
<text transform="matrix(1 0 0 1 324.5017 -2678.5)" style="font-family:'Roboto-Light'; font-size:16px;">home </text>
<text transform="matrix(1 0 0 1 368.6017 -2678.5)" style="font-family:'Roboto-Light'; font-size:16px; letter-spacing:24;"> </text>
<text transform="matrix(1 0 0 1 396.5017 -2678.5)" style="font-family:'Roboto-Light'; font-size:16px; letter-spacing:32;"> </text>
<text transform="matrix(1 0 0 1 432.5017 -2678.5)" style="font-family:'Roboto-Light'; font-size:16px;">lab </text>
<text transform="matrix(1 0 0 1 457.4017 -2678.5)" style="font-family:'Roboto-Light'; font-size:16px; letter-spacing:6;"> </text>
<text transform="matrix(1 0 0 1 468.5017 -2678.5)" style="font-family:'Roboto-Light'; font-size:16px; letter-spacing:32;"> </text>
<text transform="matrix(1 0 0 1 504.5017 -2678.5)" style="font-family:'Roboto-Light'; font-size:16px;">contact</text>
<g>
	<path d="M-1167.5-2686.8c2.7-1.2,4.1-3.4,4.1-6.6c-0.1-2.2-0.8-4-2.3-5.2c-1.2-1.1-2.8-1.6-4.8-1.6h-8.1v22.5h4v-8.5h3.1l4,8.5h4.3
		L-1167.5-2686.8z M-1167.3-2693.5v0.2c-0.1,1.5-1.3,2.7-2.9,2.7h-4.4v-5.3h4.4C-1168.6-2695.9-1167.3-2694.9-1167.3-2693.5z"/>
	<path d="M-1235.5-2700.2h-4.5l-7.9,22.4v0.1h4.3l1.8-5.3h8.2l2,5.3h4.2L-1235.5-2700.2L-1235.5-2700.2z M-1235-2687.1h-5.6l2.8-7.8
		L-1235-2687.1z"/>
	<polygon points="-1210.4,-2696.2 -1205.1,-2696.2 -1205.1,-2677.7 -1201,-2677.7 -1201,-2696.2 -1195.7,-2696.2 -1195.7,-2700.2 
		-1210.4,-2700.2 	"/>
	<polygon points="-1193.3,-2677.7 -1181,-2677.7 -1181,-2681.8 -1189.1,-2681.8 -1189.1,-2687 -1181,-2687 -1181,-2691 
		-1189.1,-2691 -1189.1,-2696.2 -1181,-2696.2 -1181,-2700.2 -1193.3,-2700.2 	"/>
	<path d="M-1257.3-2677.4h2.6l-0.7,3.2h1.8l1.6-2.8c0.2-0.4,0.4-0.9,0.4-1.4v-4.7h-5.6v5.7H-1257.3z"/>
	<polygon points="-1225.2,-2677.7 -1221.1,-2677.7 -1221.1,-2687 -1212.8,-2687 -1212.8,-2691 -1221.1,-2691 -1221.1,-2696.2 
		-1212.8,-2696.2 -1212.8,-2700.2 -1225.2,-2700.2 	"/>
</g>
<line class="st4" x1="-1558" y1="-1168.1" x2="-3479" y2="-1168.1"/>
<line class="st4" x1="-1558" y1="-880.1" x2="-2587.9" y2="-880.1"/>
<line class="st4" x1="-2518.5" y1="-1051.3" x2="-3479" y2="-1049.1"/>
<line class="st4" x1="-2568.3" y1="-1168.1" x2="-2849.8" y2="-365.2"/>
<line class="st4" x1="-2480.4" y1="-1168.1" x2="-2761.9" y2="-365.2"/>
<line class="st4" x1="-2282.9" y1="-379.6" x2="-2518.5" y2="-1051.3"/>
<line class="st4" x1="-1558" y1="-671.1" x2="-3479" y2="-671.1"/>
<line class="st4" x1="-1558" y1="-789.1" x2="-3479" y2="-789.1"/>
<text transform="matrix(1 0 0 1 -1851.5 -1387.0646)" style="font-family:'Roboto-Light'; font-size:16px;">home </text>
<text transform="matrix(1 0 0 1 -1807.3999 -1387.0646)" style="font-family:'Roboto-Light'; font-size:16px; letter-spacing:24;"> </text>
<text transform="matrix(1 0 0 1 -1779.5 -1387.0646)" style="font-family:'Roboto-Light'; font-size:16px; letter-spacing:32;"> </text>
<text transform="matrix(1 0 0 1 -1743.5 -1387.0646)" style="font-family:'Roboto-Light'; font-size:16px;">lab </text>
<text transform="matrix(1 0 0 1 -1718.6001 -1387.0646)" style="font-family:'Roboto-Light'; font-size:16px; letter-spacing:6;"> </text>
<text transform="matrix(1 0 0 1 -1707.5 -1387.0646)" style="font-family:'Roboto-Light'; font-size:16px; letter-spacing:32;"> </text>
<text transform="matrix(1 0 0 1 -1671.5 -1387.0646)" style="font-family:'Roboto-Light'; font-size:16px;">contact</text>
<g>
	<path d="M-3343.5-1395.3c2.7-1.2,4.1-3.4,4.1-6.6c-0.1-2.2-0.9-4-2.3-5.2c-1.2-1.1-2.8-1.6-4.8-1.6h-8.1v22.5h4v-8.5h3.1l4,8.5h4.3
		L-3343.5-1395.3z M-3343.3-1402v0.2c-0.1,1.5-1.3,2.7-2.9,2.7h-4.4v-5.3h4.4C-3344.6-1404.5-3343.3-1403.4-3343.3-1402z"/>
	<path d="M-3411.5-1408.7h-4.5l-7.9,22.4v0.1h4.3l1.8-5.3h8.2l2,5.3h4.2L-3411.5-1408.7L-3411.5-1408.7z M-3411-1395.7h-5.6l2.8-7.8
		L-3411-1395.7z"/>
	<polygon points="-3386.4,-1404.7 -3381.1,-1404.7 -3381.1,-1386.3 -3377,-1386.3 -3377,-1404.7 -3371.7,-1404.7 -3371.7,-1408.7 
		-3386.4,-1408.7 	"/>
	<polygon points="-3369.3,-1386.3 -3357,-1386.3 -3357,-1390.4 -3365.1,-1390.4 -3365.1,-1395.6 -3357,-1395.6 -3357,-1399.6 
		-3365.1,-1399.6 -3365.1,-1404.7 -3357,-1404.7 -3357,-1408.7 -3369.3,-1408.7 	"/>
	<path d="M-3433.3-1385.9h2.6l-0.7,3.2h1.8l1.6-2.8c0.2-0.4,0.4-0.9,0.4-1.4v-4.7h-5.6L-3433.3-1385.9L-3433.3-1385.9z"/>
	<polygon points="-3401.2,-1386.3 -3397.1,-1386.3 -3397.1,-1395.6 -3388.8,-1395.6 -3388.8,-1399.6 -3397.1,-1399.6 
		-3397.1,-1404.7 -3388.8,-1404.7 -3388.8,-1408.7 -3401.2,-1408.7 	"/>
</g>
<path d="M-3789-641.7c17.9-8.2,27.1-23,27.4-44.1c-0.4-14.9-5.7-26.5-15.6-34.5c-8.3-7.1-19-10.7-31.9-10.7h-54v150h26.6v-56.9h20.8
	l27,56.9h28.7L-3789-641.7z M-3787.5-686.3v1.3c-0.4,10-8.9,17.8-19.3,17.8h-29.6v-35.5h29.6C-3796-702.7-3787.7-695.7-3787.5-686.3
	z"/>
<polygon points="-4075.4,-704.5 -4039.9,-704.5 -4039.9,-581 -4012.4,-581 -4012.4,-704.5 -3976.8,-704.5 -3976.8,-731.1 
	-4075.4,-731.1 "/>
<polygon points="-3960.8,-581 -3879.1,-581 -3879.1,-608.5 -3933.3,-608.5 -3933.3,-643.2 -3879.1,-643.2 -3879.1,-669.8 
	-3933.3,-669.8 -3933.3,-704.5 -3879.1,-704.5 -3879.1,-731.1 -3960.8,-731.1 "/>
<path d="M-4388.6-578.8h17.5l-5,21.3h11.9l10.4-18.9c1.6-2.9,2.4-6.2,2.4-9.5V-617h-37.3v38.2H-4388.6z"/>
<polygon points="-4174,-581 -4146.5,-581 -4146.5,-643.2 -4091.4,-643.2 -4091.4,-669.8 -4146.5,-669.8 -4146.5,-704.5 
	-4091.4,-704.5 -4091.4,-731.1 -4174,-731.1 "/>
<path d="M-3663.3-2031.3h12.6l-3.6,15.4h8.6l7.5-13.7c1.2-2.1,1.8-4.5,1.8-6.8v-22.4h-26.9V-2031.3z"/>
<polygon class="st7" points="-2469.1,-1167.6 -2568.5,-1167.6 -2743,-673.5 -2743.7,-671.6 -2652.7,-671.6 -2613.2,-789 
	-2428.4,-789 -2385.3,-671.6 -2292.3,-671.6 -2468.8,-1166.6 "/>
<polygon class="st0" points="-2457.3,-879.9 -2582,-879.9 -2519.6,-1052.6 "/>
<line class="st4" x1="-1558" y1="41.5" x2="-3479" y2="41.5"/>
<line class="st4" x1="-2095" y1="329.5" x2="-3124.8" y2="329.5"/>
<line class="st4" x1="-3055.5" y1="158.2" x2="-4016" y2="160.5"/>
<line class="st4" x1="-3105.3" y1="41.5" x2="-3386.8" y2="844.3"/>
<line class="st4" x1="-3017.3" y1="41.5" x2="-3298.8" y2="844.3"/>
<line class="st4" x1="-2819.8" y1="830" x2="-3055.5" y2="158.2"/>
<line class="st4" x1="-2095" y1="538.5" x2="-4016" y2="538.5"/>
<line class="st4" x1="-2095" y1="420.5" x2="-4016" y2="420.5"/>
<text transform="matrix(1 0 0 1 -1851.5 -177.5)" style="font-family:'Roboto-Light'; font-size:16px;">home </text>
<text transform="matrix(1 0 0 1 -1807.3999 -177.5)" style="font-family:'Roboto-Light'; font-size:16px; letter-spacing:24;"> </text>
<text transform="matrix(1 0 0 1 -1779.5 -177.5)" style="font-family:'Roboto-Light'; font-size:16px; letter-spacing:32;"> </text>
<text transform="matrix(1 0 0 1 -1743.5 -177.5)" style="font-family:'Roboto-Light'; font-size:16px;">lab </text>
<text transform="matrix(1 0 0 1 -1718.6001 -177.5)" style="font-family:'Roboto-Light'; font-size:16px; letter-spacing:6;"> </text>
<text transform="matrix(1 0 0 1 -1707.5 -177.5)" style="font-family:'Roboto-Light'; font-size:16px; letter-spacing:32;"> </text>
<text transform="matrix(1 0 0 1 -1671.5 -177.5)" style="font-family:'Roboto-Light'; font-size:16px;">contact</text>
<g>
	<path d="M-3343.5-185.8c2.7-1.2,4.1-3.4,4.1-6.6c-0.1-2.2-0.9-4-2.3-5.2c-1.2-1.1-2.8-1.6-4.8-1.6h-8.1v22.5h4v-8.5h3.1l4,8.5h4.3
		L-3343.5-185.8z M-3343.3-192.5v0.2c-0.1,1.5-1.3,2.7-2.9,2.7h-4.4v-5.3h4.4C-3344.6-194.9-3343.3-193.9-3343.3-192.5z"/>
	<path d="M-3411.5-199.2h-4.5l-7.9,22.4v0.1h4.3l1.8-5.3h8.2l2,5.3h4.2L-3411.5-199.2L-3411.5-199.2z M-3411-186.1h-5.6l2.8-7.8
		L-3411-186.1z"/>
	<polygon points="-3386.4,-195.2 -3381.1,-195.2 -3381.1,-176.7 -3377,-176.7 -3377,-195.2 -3371.7,-195.2 -3371.7,-199.2 
		-3386.4,-199.2 	"/>
	<polygon points="-3369.3,-176.7 -3357,-176.7 -3357,-180.8 -3365.1,-180.8 -3365.1,-186 -3357,-186 -3357,-190 -3365.1,-190 
		-3365.1,-195.2 -3357,-195.2 -3357,-199.2 -3369.3,-199.2 	"/>
	<path d="M-3433.3-176.4h2.6l-0.7,3.2h1.8l1.6-2.8c0.2-0.4,0.4-0.9,0.4-1.4v-4.7h-5.6L-3433.3-176.4L-3433.3-176.4z"/>
	<polygon points="-3401.2,-176.7 -3397.1,-176.7 -3397.1,-186 -3388.8,-186 -3388.8,-190 -3397.1,-190 -3397.1,-195.2 
		-3388.8,-195.2 -3388.8,-199.2 -3401.2,-199.2 	"/>
</g>
<polygon class="st0" points="-2994.3,329.6 -3118.9,329.6 -3056.6,157 "/>
<path d="M-3548.6,1262.8c12.7-5.8,19.3-16.3,19.5-31.3c-0.3-10.6-4-18.8-11.1-24.5c-5.9-5.1-13.5-7.6-22.6-7.6h-38.4V1306h18.9
	v-40.4h14.8l19.2,40.4h20.4L-3548.6,1262.8z M-3547.5,1231.2v1c-0.3,7.1-6.3,12.6-13.7,12.6h-21v-25.2h21
	C-3553.5,1219.5-3547.6,1224.5-3547.5,1231.2z"/>
<polygon points="-3752,1218.3 -3726.7,1218.3 -3726.7,1306 -3707.2,1306 -3707.2,1218.3 -3681.9,1218.3 -3681.9,1199.3 
	-3752,1199.3 "/>
<polygon points="-3670.6,1306 -3612.5,1306 -3612.5,1286.4 -3651,1286.4 -3651,1261.8 -3612.5,1261.8 -3612.5,1242.9 -3651,1242.9 
	-3651,1218.3 -3612.5,1218.3 -3612.5,1199.3 -3670.6,1199.3 "/>
<path d="M-3907.8,1364.9h2.1c2.9,0,5.1,2.7,4.5,5.6l-0.9,3.9c-0.7,2.9,1.5,5.6,4.5,5.6l0,0c1.7,0,3.2-0.9,4-2.4l5.5-10.1
	c1.5-2.7,2.3-5.8,2.3-9v-16.3c0-2.5-2-4.6-4.6-4.6h-17.4c-2.5,0-4.6,2-4.6,4.6v18C-3912.4,1362.9-3910.4,1364.9-3907.8,1364.9z"/>
<path d="M-3914.1,1365.6h-2.1c-2.9,0-5.1,2.7-4.5,5.6l0.9,3.9c0.7,2.9-1.5,5.6-4.5,5.6l0,0c-1.7,0-3.2-0.9-4-2.4l-5.5-10.1
	c-1.5-2.7-2.3-5.8-2.3-9V1343c0-2.5,2-4.6,4.6-4.6h17.4c2.5,0,4.6,2,4.6,4.6v18C-3909.5,1363.5-3911.6,1365.6-3914.1,1365.6z"/>
<path d="M-3914.1,1299.6h-2.1c-2.9,0-5.1-2.7-4.5-5.6l0.9-3.9c0.7-2.9-1.5-5.6-4.5-5.6l0,0c-1.7,0-3.2,0.9-4,2.4l-5.5,10.1
	c-1.5,2.7-2.3,5.8-2.3,9v16.3c0,2.5,2,4.6,4.6,4.6h17.4c2.5,0,4.6-2,4.6-4.6v-18C-3909.5,1301.6-3911.6,1299.6-3914.1,1299.6z"/>
<path d="M-3907.8,1298.9h2.1c2.9,0,5.1-2.7,4.5-5.6l-0.9-3.9c-0.7-2.9,1.5-5.6,4.5-5.6l0,0c1.7,0,3.2,0.9,4,2.4l5.5,10.1
	c1.5,2.7,2.3,5.8,2.3,9v16.3c0,2.5-2,4.6-4.6,4.6h-17.4c-2.5,0-4.6-2-4.6-4.6v-18C-3912.4,1301-3910.4,1298.9-3907.8,1298.9z"/>
<path d="M-3969.4,1249.7h-2.1c-2.9,0-5.1-2.7-4.5-5.6l0.9-3.9c0.7-2.9-1.5-5.6-4.5-5.6l0,0c-1.7,0-3.2,0.9-4,2.4l-5.5,10.1
	c-1.5,2.7-2.3,5.8-2.3,9v16.3c0,2.5,2,4.6,4.6,4.6h17.4c2.5,0,4.6-2,4.6-4.6v-18C-3964.8,1251.7-3966.9,1249.7-3969.4,1249.7z"/>
<path d="M-3973.8,1249.7h2.1c2.9,0,5.1-2.7,4.5-5.6l-0.9-3.9c-0.7-2.9,1.5-5.6,4.5-5.6l0,0c1.7,0,3.2,0.9,4,2.4l5.5,10.1
	c1.5,2.7,2.3,5.8,2.3,9v16.3c0,2.5-2,4.6-4.6,4.6h-17.4c-2.5,0-4.6-2-4.6-4.6v-18C-3978.3,1251.7-3976.3,1249.7-3973.8,1249.7z"/>
<polygon points="-3822,1306 -3802.4,1306 -3802.4,1261.8 -3763.3,1261.8 -3763.3,1242.9 -3802.4,1242.9 -3802.4,1218.3 
	-3763.3,1218.3 -3763.3,1199.3 -3822,1199.3 "/>
<line class="st8" x1="-3984.3" y1="1258.7" x2="-3978.3" y2="1258.7"/>
<line class="st8" x1="-3967.8" y1="1258.7" x2="-3961.8" y2="1258.7"/>
<g>
	<g>
		<path class="st2" d="M-3977.4,1268.7c2.4,1.8,5.2,1.2,7.2-0.8c1.4-1.4-0.7-3.5-2.1-2.1c-1.2,1.2-2.2,1.4-3.6,0.3
			c-0.7-0.5-1.7-0.1-2.1,0.5C-3978.4,1267.4-3978.1,1268.2-3977.4,1268.7L-3977.4,1268.7z"/>
	</g>
</g>
<path class="st9" d="M-295.8-2451.1"/>
<path class="st9" d="M-152.2-2042.2"/>
<line class="st10" x1="-288.4" y1="-2210.1" x2="-337.1" y2="-2348.9"/>
<rect x="-401.8" y="1428.5" class="st11" width="600.8" height="465"/>
<text transform="matrix(1 0 0 1 -401.7651 1494.4739)" style="font-family:'Roboto-Bold'; font-size:88px;">we are digital </text>
<text transform="matrix(1 0 0 1 -401.7651 1580.4739)" style="font-family:'Roboto-Bold'; font-size:88px;">product studio.</text>
<line class="st7" x1="-386.6" y1="-2210" x2="-288.7" y2="-2210"/>
<line class="st7" x1="-337.1" y1="-2348.5" x2="-288.7" y2="-2210"/>
<line class="st7" x1="-337.1" y1="-2348.9" x2="-385.9" y2="-2209.8"/>
<text transform="matrix(1 0 0 1 324.5 -1572.4999)" style="font-family:'Roboto-Light'; font-size:16px;">home </text>
<text transform="matrix(1 0 0 1 368.6 -1572.4999)" style="font-family:'Roboto-Light'; font-size:16px; letter-spacing:24;"> </text>
<text transform="matrix(1 0 0 1 396.5 -1572.4999)" style="font-family:'Roboto-Light'; font-size:16px; letter-spacing:32;"> </text>
<text transform="matrix(1 0 0 1 432.5 -1572.4999)" style="font-family:'Roboto-Light'; font-size:16px;">lab </text>
<text transform="matrix(1 0 0 1 457.4 -1572.4999)" style="font-family:'Roboto-Light'; font-size:16px; letter-spacing:6;"> </text>
<text transform="matrix(1 0 0 1 468.5 -1572.4999)" style="font-family:'Roboto-Light'; font-size:16px; letter-spacing:32;"> </text>
<text transform="matrix(1 0 0 1 504.5 -1572.4999)" style="font-family:'Roboto-Light'; font-size:16px;">contact</text>
<g>
	<path d="M-1167.5-1580.8c2.7-1.2,4.1-3.4,4.1-6.6c-0.1-2.2-0.8-4-2.3-5.2c-1.2-1.1-2.8-1.6-4.8-1.6h-8.1v22.5h4v-8.5h3.1l4,8.5h4.3
		L-1167.5-1580.8z M-1167.3-1587.5v0.2c-0.1,1.5-1.3,2.7-2.9,2.7h-4.4v-5.3h4.4C-1168.6-1589.9-1167.3-1588.9-1167.3-1587.5z"/>
	<path d="M-1235.5-1594.2h-4.5l-7.9,22.4v0.1h4.3l1.8-5.3h8.2l2,5.3h4.2L-1235.5-1594.2L-1235.5-1594.2z M-1235-1581.1h-5.6l2.8-7.8
		L-1235-1581.1z"/>
	<polygon points="-1210.4,-1590.2 -1205.1,-1590.2 -1205.1,-1571.7 -1201,-1571.7 -1201,-1590.2 -1195.7,-1590.2 -1195.7,-1594.2 
		-1210.4,-1594.2 	"/>
	<polygon points="-1193.3,-1571.7 -1181,-1571.7 -1181,-1575.8 -1189.1,-1575.8 -1189.1,-1581 -1181,-1581 -1181,-1585 
		-1189.1,-1585 -1189.1,-1590.2 -1181,-1590.2 -1181,-1594.2 -1193.3,-1594.2 	"/>
	<path d="M-1257.3-1571.4h2.6l-0.7,3.2h1.8l1.6-2.8c0.2-0.4,0.4-0.9,0.4-1.4v-4.7h-5.6v5.7H-1257.3z"/>
	<polygon points="-1225.2,-1571.7 -1221.1,-1571.7 -1221.1,-1581 -1212.8,-1581 -1212.8,-1585 -1221.1,-1585 -1221.1,-1590.2 
		-1212.8,-1590.2 -1212.8,-1594.2 -1225.2,-1594.2 	"/>
</g>
<path class="st12" d="M-689.6-932.4h45.3l-12.8,55.3h30.9l27.1-49.1c4.1-7.5,6.3-16,6.3-24.6v-80.6h-96.8V-932.4z"/>
<line class="st13" x1="-1302" y1="-1343.5" x2="-297" y2="-1343.5"/>
<line class="st14" x1="-379.5" y1="-1343.5" x2="-297" y2="-1343.5"/>
<line class="st4" x1="-386.6" y1="-1104" x2="613" y2="-1104"/>
<line class="st4" x1="-1302" y1="-1031.5" x2="614" y2="-1031.5"/>
<line class="st4" x1="-1302" y1="-933.5" x2="614" y2="-933.5"/>
<line class="st4" x1="-1307" y1="-1242.5" x2="-337.1" y2="-1242.5"/>
<polyline class="st15" points="-655.4,-559.7 -560.8,-828.5 -379.6,-1343.7 "/>
<path class="st9" d="M-295.8-1345.1"/>
<path class="st9" d="M-152.2-936.2"/>
<line class="st15" x1="-103.1" y1="-796.7" x2="-296.9" y2="-1343.4"/>
<line class="st10" x1="-151.6" y1="-933.3" x2="-296.9" y2="-1343.4"/>
<line class="st15" x1="-98.4" y1="-563" x2="-372.4" y2="-1343.4"/>
<line class="st10" x1="-288.4" y1="-1104.1" x2="-337.1" y2="-1242.9"/>
<line class="st10" x1="-228.4" y1="-933.3" x2="-262.9" y2="-1031.5"/>
<line class="st4" x1="-337.1" y1="-1242.9" x2="-575.9" y2="-562.7"/>
<polygon class="st0" points="-288.7,-1104 -386.6,-1104 -337.1,-1242.9 "/>
<line class="st7" x1="-524.1" y1="-933.4" x2="-445.2" y2="-933.4"/>
<line class="st7" x1="-228.2" y1="-933.4" x2="-151.4" y2="-933.4"/>
<line class="st7" x1="-411" y1="-1031.3" x2="-263.5" y2="-1031.3"/>
<line class="st7" x1="-386.6" y1="-1104" x2="-288.7" y2="-1104"/>
<line class="st7" x1="-337.1" y1="-1242.5" x2="-288.7" y2="-1104"/>
<line class="st14" x1="-524" y1="-933.3" x2="-379.6" y2="-1343.7"/>
<line class="st7" x1="-411.3" y1="-1031.4" x2="-445.7" y2="-933.5"/>
<line class="st7" x1="-337.1" y1="-1242.9" x2="-385.9" y2="-1103.8"/>
<text transform="matrix(1 0 0 1 324.5 -342.5005)" style="font-family:'Roboto-Light'; font-size:16px;">home </text>
<text transform="matrix(1 0 0 1 368.6 -342.5005)" style="font-family:'Roboto-Light'; font-size:16px; letter-spacing:24;"> </text>
<text transform="matrix(1 0 0 1 396.5 -342.5005)" style="font-family:'Roboto-Light'; font-size:16px; letter-spacing:32;"> </text>
<text transform="matrix(1 0 0 1 432.5 -342.5005)" style="font-family:'Roboto-Light'; font-size:16px;">lab </text>
<text transform="matrix(1 0 0 1 457.4 -342.5005)" style="font-family:'Roboto-Light'; font-size:16px; letter-spacing:6;"> </text>
<text transform="matrix(1 0 0 1 468.5 -342.5005)" style="font-family:'Roboto-Light'; font-size:16px; letter-spacing:32;"> </text>
<text transform="matrix(1 0 0 1 504.5 -342.5005)" style="font-family:'Roboto-Light'; font-size:16px;">contact</text>
<g>
	<path d="M-1167.5-350.8c2.7-1.2,4.1-3.4,4.1-6.6c-0.1-2.2-0.8-4-2.3-5.2c-1.2-1.1-2.8-1.6-4.8-1.6h-8.1v22.5h4v-8.5h3.1l4,8.5h4.3
		L-1167.5-350.8z M-1167.3-357.5v0.2c-0.1,1.5-1.3,2.7-2.9,2.7h-4.4v-5.3h4.4C-1168.6-359.9-1167.3-358.9-1167.3-357.5z"/>
	<path d="M-1235.5-364.2h-4.5l-7.9,22.4v0.1h4.3l1.8-5.3h8.2l2,5.3h4.2L-1235.5-364.2L-1235.5-364.2z M-1235-351.1h-5.6l2.8-7.8
		L-1235-351.1z"/>
	<polygon points="-1210.4,-360.2 -1205.1,-360.2 -1205.1,-341.7 -1201,-341.7 -1201,-360.2 -1195.7,-360.2 -1195.7,-364.2 
		-1210.4,-364.2 	"/>
	<polygon points="-1193.3,-341.7 -1181,-341.7 -1181,-345.8 -1189.1,-345.8 -1189.1,-351 -1181,-351 -1181,-355 -1189.1,-355 
		-1189.1,-360.2 -1181,-360.2 -1181,-364.2 -1193.3,-364.2 	"/>
	<path d="M-1257.3-341.4h2.6l-0.7,3.2h1.8l1.6-2.8c0.2-0.4,0.4-0.9,0.4-1.4v-4.7h-5.6v5.7H-1257.3z"/>
	<polygon points="-1225.2,-341.7 -1221.1,-341.7 -1221.1,-351 -1212.8,-351 -1212.8,-355 -1221.1,-355 -1221.1,-360.2 
		-1212.8,-360.2 -1212.8,-364.2 -1225.2,-364.2 	"/>
</g>
<line class="st13" x1="-1302" y1="-113.5" x2="-297" y2="-113.5"/>
<line class="st14" x1="-379.5" y1="-113.5" x2="-297" y2="-113.5"/>
<line class="st4" x1="-386.6" y1="126" x2="613" y2="126"/>
<line class="st4" x1="-1302" y1="198.5" x2="614" y2="198.5"/>
<line class="st4" x1="-1302" y1="296.5" x2="614" y2="296.5"/>
<line class="st4" x1="-1307" y1="-12.5" x2="-337.1" y2="-12.5"/>
<polyline class="st15" points="-655.4,670.3 -560.8,401.5 -379.6,-113.7 "/>
<path class="st9" d="M-295.8-115.1"/>
<path class="st9" d="M-152.2,293.8"/>
<line class="st15" x1="-103.1" y1="433.3" x2="-296.9" y2="-113.4"/>
<line class="st10" x1="-151.6" y1="296.7" x2="-296.9" y2="-113.4"/>
<line class="st15" x1="-98.4" y1="667" x2="-372.4" y2="-113.4"/>
<line class="st10" x1="-288.4" y1="125.9" x2="-337.1" y2="-12.9"/>
<line class="st10" x1="-228.4" y1="296.7" x2="-262.9" y2="198.5"/>
<line class="st4" x1="-337.1" y1="-12.9" x2="-575.9" y2="667.3"/>
<polygon class="st0" points="-288.7,126 -386.6,126 -337.1,-12.9 "/>
<line class="st7" x1="-524.1" y1="296.6" x2="-445.2" y2="296.6"/>
<line class="st7" x1="-228.2" y1="296.6" x2="-151.4" y2="296.6"/>
<line class="st7" x1="-411" y1="198.7" x2="-263.5" y2="198.7"/>
<line class="st7" x1="-386.6" y1="126" x2="-288.7" y2="126"/>
<line class="st7" x1="-337.1" y1="-12.5" x2="-288.7" y2="126"/>
<line class="st14" x1="-524" y1="296.7" x2="-379.6" y2="-113.7"/>
<line class="st7" x1="-411.3" y1="198.6" x2="-445.7" y2="296.5"/>
<line class="st7" x1="-337.1" y1="-12.9" x2="-385.9" y2="126.2"/>
<line class="st13" x1="810" y1="-113.5" x2="1815" y2="-113.5"/>
<line class="st14" x1="1732.5" y1="-113.5" x2="1815" y2="-113.5"/>
<line class="st4" x1="1725.4" y1="126" x2="2725" y2="126"/>
<line class="st4" x1="810" y1="198.5" x2="2726" y2="198.5"/>
<line class="st4" x1="810" y1="296.5" x2="2726" y2="296.5"/>
<line class="st4" x1="805" y1="-12.5" x2="1774.9" y2="-12.5"/>
<polyline class="st15" points="1456.6,670.3 1551.2,401.5 1732.4,-113.7 "/>
<path class="st9" d="M1816.2-115.1"/>
<path class="st9" d="M1959.8,293.8"/>
<line class="st15" x1="2008.9" y1="433.3" x2="1815.1" y2="-113.4"/>
<line class="st10" x1="1960.4" y1="296.7" x2="1815.1" y2="-113.4"/>
<line class="st15" x1="2013.6" y1="667" x2="1739.6" y2="-113.4"/>
<line class="st10" x1="1823.6" y1="125.9" x2="1774.9" y2="-12.9"/>
<line class="st10" x1="1882.6" y1="296.7" x2="1849.1" y2="198.5"/>
<line class="st4" x1="1774.9" y1="-12.9" x2="1536.1" y2="667.3"/>
<line class="st7" x1="1587.9" y1="296.6" x2="1666.8" y2="296.6"/>
<line class="st7" x1="1883.8" y1="296.6" x2="1960.6" y2="296.6"/>
<line class="st7" x1="1701" y1="198.7" x2="1848.5" y2="198.7"/>
<line class="st7" x1="1774.9" y1="-12.5" x2="1823.3" y2="126"/>
<line class="st14" x1="1588" y1="296.7" x2="1732.4" y2="-113.7"/>
<line class="st7" x1="1700.7" y1="198.6" x2="1666.3" y2="296.5"/>
<line class="st7" x1="1774.9" y1="-12.9" x2="1726.1" y2="126.2"/>
<text transform="matrix(1 0 0 1 324.5 965.438)" style="font-family:'Roboto-Light'; font-size:16px;">home </text>
<text transform="matrix(1 0 0 1 368.6 965.438)" style="font-family:'Roboto-Light'; font-size:16px; letter-spacing:24;"> </text>
<text transform="matrix(1 0 0 1 396.5 965.438)" style="font-family:'Roboto-Light'; font-size:16px; letter-spacing:32;"> </text>
<text transform="matrix(1 0 0 1 432.5 965.438)" style="font-family:'Roboto-Light'; font-size:16px;">lab </text>
<text transform="matrix(1 0 0 1 457.4 965.438)" style="font-family:'Roboto-Light'; font-size:16px; letter-spacing:6;"> </text>
<text transform="matrix(1 0 0 1 468.5 965.438)" style="font-family:'Roboto-Light'; font-size:16px; letter-spacing:32;"> </text>
<text transform="matrix(1 0 0 1 504.5 965.438)" style="font-family:'Roboto-Light'; font-size:16px;">contact</text>
<g>
	<path d="M-1167.5,957.2c2.7-1.2,4.1-3.4,4.1-6.6c-0.1-2.2-0.8-4-2.3-5.2c-1.2-1.1-2.8-1.6-4.8-1.6h-8.1v22.5h4v-8.5h3.1l4,8.5h4.3
		L-1167.5,957.2z M-1167.3,950.5v0.2c-0.1,1.5-1.3,2.7-2.9,2.7h-4.4v-5.3h4.4C-1168.6,948-1167.3,949.1-1167.3,950.5z"/>
	<path d="M-1235.5,943.8h-4.5l-7.9,22.4v0.1h4.3l1.8-5.3h8.2l2,5.3h4.2L-1235.5,943.8L-1235.5,943.8z M-1235,956.8h-5.6l2.8-7.8
		L-1235,956.8z"/>
	<polygon points="-1210.4,947.8 -1205.1,947.8 -1205.1,966.3 -1201,966.3 -1201,947.8 -1195.7,947.8 -1195.7,943.8 -1210.4,943.8 	
		"/>
	<polygon points="-1193.3,966.3 -1181,966.3 -1181,962.1 -1189.1,962.1 -1189.1,956.9 -1181,956.9 -1181,953 -1189.1,953 
		-1189.1,947.8 -1181,947.8 -1181,943.8 -1193.3,943.8 	"/>
	<path d="M-1257.3,966.6h2.6l-0.7,3.2h1.8l1.6-2.8c0.2-0.4,0.4-0.9,0.4-1.4v-4.7h-5.6v5.7H-1257.3z"/>
	<polygon points="-1225.2,966.3 -1221.1,966.3 -1221.1,956.9 -1212.8,956.9 -1212.8,953 -1221.1,953 -1221.1,947.8 -1212.8,947.8 
		-1212.8,943.8 -1225.2,943.8 	"/>
</g>
<line class="st13" x1="-1811.4" y1="1228.3" x2="-693.4" y2="1228.3"/>
<line class="st14" x1="-785.1" y1="1228.3" x2="-693.4" y2="1228.3"/>
<line class="st4" x1="-793" y1="1494.8" x2="318.9" y2="1494.8"/>
<line class="st4" x1="-1811.4" y1="1575.4" x2="320.1" y2="1575.4"/>
<line class="st4" x1="-1811.4" y1="1684.5" x2="320.1" y2="1684.5"/>
<line class="st4" x1="-1817" y1="1340.7" x2="-738" y2="1340.7"/>
<polyline class="st15" points="-1092.1,2100.3 -986.9,1801.2 -785.3,1228.1 "/>
<path class="st9" d="M-692.1,1226.6"/>
<path class="st9" d="M-532.3,1681.4"/>
<line class="st15" x1="-477.7" y1="1836.7" x2="-693.3" y2="1228.5"/>
<line class="st10" x1="-531.6" y1="1684.7" x2="-693.3" y2="1228.5"/>
<line class="st15" x1="-472.5" y1="2096.6" x2="-777.3" y2="1228.5"/>
<line class="st10" x1="-683.8" y1="1494.7" x2="-738" y2="1340.3"/>
<line class="st10" x1="-617.1" y1="1684.7" x2="-655.5" y2="1575.4"/>
<line class="st4" x1="-738" y1="1340.3" x2="-1003.6" y2="2097"/>
<line class="st7" x1="-946" y1="1684.6" x2="-858.3" y2="1684.6"/>
<line class="st7" x1="-616.9" y1="1684.6" x2="-531.5" y2="1684.6"/>
<line class="st7" x1="-820.3" y1="1575.7" x2="-656.1" y2="1575.7"/>
<line class="st7" x1="-793" y1="1494.8" x2="-684.1" y2="1494.8"/>
<line class="st7" x1="-738" y1="1340.7" x2="-684.1" y2="1494.8"/>
<line class="st14" x1="-945.9" y1="1684.7" x2="-785.3" y2="1228.1"/>
<line class="st7" x1="-820.6" y1="1575.6" x2="-858.8" y2="1684.4"/>
<line class="st7" x1="-738" y1="1340.3" x2="-792.4" y2="1495"/>
<circle class="st0" cx="-338.1" cy="-2257.3" r="91.4"/>
<polyline class="st15" points="-655.4,-1665.7 -560.8,-1934.5 -379.6,-2449.7 "/>
<line class="st15" x1="-103.1" y1="-1902.7" x2="-296.9" y2="-2449.4"/>
<line class="st15" x1="-98.4" y1="-1669" x2="-372.4" y2="-2449.4"/>
<line class="st4" x1="-337.1" y1="-2348.9" x2="-575.9" y2="-1668.7"/>
<line class="st4" x1="-386.6" y1="-2210" x2="613" y2="-2210"/>
<line class="st4" x1="-1302" y1="-2137.5" x2="614" y2="-2137.5"/>
<line class="st4" x1="-1302" y1="-2039.5" x2="614" y2="-2039.5"/>
<line class="st13" x1="-1302" y1="-2449.5" x2="-297" y2="-2449.5"/>
<line class="st4" x1="-1307" y1="-2348.5" x2="-337.1" y2="-2348.5"/>
<text transform="matrix(1 0 0 1 2427.3965 -2678.5)" style="font-family:'Roboto-Light'; font-size:16px;">home </text>
<text transform="matrix(1 0 0 1 2471.4966 -2678.5)" style="font-family:'Roboto-Light'; font-size:16px; letter-spacing:24;"> </text>
<text transform="matrix(1 0 0 1 2499.3965 -2678.5)" style="font-family:'Roboto-Light'; font-size:16px; letter-spacing:32;"> </text>
<text transform="matrix(1 0 0 1 2535.3965 -2678.5)" style="font-family:'Roboto-Light'; font-size:16px;">lab </text>
<text transform="matrix(1 0 0 1 2560.2964 -2678.5)" style="font-family:'Roboto-Light'; font-size:16px; letter-spacing:6;"> </text>
<text transform="matrix(1 0 0 1 2571.3965 -2678.5)" style="font-family:'Roboto-Light'; font-size:16px; letter-spacing:32;"> </text>
<text transform="matrix(1 0 0 1 2607.3965 -2678.5)" style="font-family:'Roboto-Light'; font-size:16px;">contact</text>
<g>
	<path d="M935.4-2686.8c2.7-1.2,4.1-3.4,4.1-6.6c-0.1-2.2-0.8-4-2.3-5.2c-1.2-1.1-2.8-1.6-4.8-1.6h-8.1v22.5h4v-8.5h3.1l4,8.5h4.3
		L935.4-2686.8z M935.6-2693.5v0.2c-0.1,1.5-1.3,2.7-2.9,2.7h-4.4v-5.3h4.4C934.3-2695.9,935.6-2694.9,935.6-2693.5z"/>
	<path d="M867.4-2700.2h-4.5l-7.9,22.4v0.1h4.3l1.8-5.3h8.2l2,5.3h4.2L867.4-2700.2L867.4-2700.2z M867.9-2687.1h-5.6l2.8-7.8
		L867.9-2687.1z"/>
	<polygon points="892.5,-2696.2 897.8,-2696.2 897.8,-2677.7 901.9,-2677.7 901.9,-2696.2 907.2,-2696.2 907.2,-2700.2 
		892.5,-2700.2 	"/>
	<polygon points="909.6,-2677.7 921.9,-2677.7 921.9,-2681.8 913.8,-2681.8 913.8,-2687 921.9,-2687 921.9,-2691 913.8,-2691 
		913.8,-2696.2 921.9,-2696.2 921.9,-2700.2 909.6,-2700.2 	"/>
	<path d="M845.6-2677.4h2.6l-0.7,3.2h1.8l1.6-2.8c0.2-0.4,0.4-0.9,0.4-1.4v-4.7h-5.6v5.7H845.6z"/>
	<polygon points="877.7,-2677.7 881.8,-2677.7 881.8,-2687 890.1,-2687 890.1,-2691 881.8,-2691 881.8,-2696.2 890.1,-2696.2 
		890.1,-2700.2 877.7,-2700.2 	"/>
</g>
<g>
	<path class="st0" d="M-487.6,1463.7c-2.3,60.6-82.7,89.8-123.9,128s-76.5,116.1-137.1,113.8s-89.8-82.7-128-123.9
		c-38.2-41.2-116.1-76.5-113.8-137.1c2.3-60.6,82.7-89.8,123.9-128s76.5-116.1,137.1-113.8c60.6,2.3,89.8,82.7,128,123.9
		S-485.3,1403.2-487.6,1463.7z"/>
</g>
<path d="M-693.5,1227.1l-0.3-0.9h-92.4l-162.2,459.2l-0.6,1.8h88.3l36.8-109.1h168l40.1,109.1h86.4L-693.5,1227.1z M-794.1,1495.1
	l55.7-156.4l54.5,156.4H-794.1z"/>
<text transform="matrix(1 0 0 1 324.5 2255.2444)" style="font-family:'Roboto-Light'; font-size:16px;">home </text>
<text transform="matrix(1 0 0 1 368.6 2255.2444)" style="font-family:'Roboto-Light'; font-size:16px; letter-spacing:24;"> </text>
<text transform="matrix(1 0 0 1 396.5 2255.2444)" style="font-family:'Roboto-Light'; font-size:16px; letter-spacing:32;"> </text>
<text transform="matrix(1 0 0 1 432.5 2255.2444)" style="font-family:'Roboto-Light'; font-size:16px;">lab </text>
<text transform="matrix(1 0 0 1 457.4 2255.2444)" style="font-family:'Roboto-Light'; font-size:16px; letter-spacing:6;"> </text>
<text transform="matrix(1 0 0 1 468.5 2255.2444)" style="font-family:'Roboto-Light'; font-size:16px; letter-spacing:32;"> </text>
<text transform="matrix(1 0 0 1 504.5 2255.2444)" style="font-family:'Roboto-Light'; font-size:16px;">contact</text>
<g>
	<path d="M-1167.5,2247c2.7-1.2,4.1-3.4,4.1-6.6c-0.1-2.2-0.8-4-2.3-5.2c-1.2-1.1-2.8-1.6-4.8-1.6h-8.1v22.5h4v-8.5h3.1l4,8.5h4.3
		L-1167.5,2247z M-1167.3,2240.3v0.2c-0.1,1.5-1.3,2.7-2.9,2.7h-4.4v-5.3h4.4C-1168.6,2237.8-1167.3,2238.9-1167.3,2240.3z"/>
	<path d="M-1235.5,2233.6h-4.5l-7.9,22.4v0.1h4.3l1.8-5.3h8.2l2,5.3h4.2L-1235.5,2233.6L-1235.5,2233.6z M-1235,2246.6h-5.6l2.8-7.8
		L-1235,2246.6z"/>
	<polygon points="-1210.4,2237.6 -1205.1,2237.6 -1205.1,2256.1 -1201,2256.1 -1201,2237.6 -1195.7,2237.6 -1195.7,2233.6 
		-1210.4,2233.6 	"/>
	<polygon points="-1193.3,2256.1 -1181,2256.1 -1181,2251.9 -1189.1,2251.9 -1189.1,2246.7 -1181,2246.7 -1181,2242.8 
		-1189.1,2242.8 -1189.1,2237.6 -1181,2237.6 -1181,2233.6 -1193.3,2233.6 	"/>
	<path d="M-1257.3,2256.4h2.6l-0.7,3.2h1.8l1.6-2.8c0.2-0.4,0.4-0.9,0.4-1.4v-4.7h-5.6v5.7H-1257.3z"/>
	<polygon points="-1225.2,2256.1 -1221.1,2256.1 -1221.1,2246.7 -1212.8,2246.7 -1212.8,2242.8 -1221.1,2242.8 -1221.1,2237.6 
		-1212.8,2237.6 -1212.8,2233.6 -1225.2,2233.6 	"/>
</g>
<path class="st9" d="M-642.1,2516.4"/>
<path class="st9" d="M-472.3,2971.2"/>
<rect x="-847.2" y="2722.7" class="st2" width="951.7" height="100.9"/>
<rect x="-892" y="2836" class="st2" width="1104.7" height="100.9"/>
<g>
	<path d="M-1535.1,3109.2h78.9l-22.3,96.2h53.7l47.1-85.5c7.2-13.1,11-27.9,11-42.9v-140.3h-168.4V3109.2z"/>
	<path d="M-912.1,2392.2l-0.5-1.4h-144.5l-253.7,718.3l-1,2.8h138.1l57.5-170.7h262.8l62.7,170.7h135.2L-912.1,2392.2z
		 M-1069.6,2811.4l87.1-244.6l85.3,244.6H-1069.6z"/>
</g>
<g>
	<rect x="-624.9" y="2722.7" class="st11" width="966.1" height="554.3"/>
	<text transform="matrix(1 0 0 1 -624.8787 2812.7451)" style="font-family:'Roboto-Bold'; font-size:120px;">we are digital </text>
	<text transform="matrix(1 0 0 1 -624.8787 2922.7451)" style="font-family:'Roboto-Bold'; font-size:120px;">product studio.</text>
</g>
<line class="st14" x1="1725.4" y1="126" x2="1823.3" y2="126"/>
</svg>
