<?xml version="1.0" encoding="utf-8"?>
<!-- Generator: Adobe Illustrator 19.0.0, SVG Export Plug-In . SVG Version: 6.00 Build 0)  -->
<svg version="1.1" id="Layer_1" xmlns="http://www.w3.org/2000/svg" xmlns:xlink="http://www.w3.org/1999/xlink" x="0px" y="0px"
	 viewBox="0 0 44 44" style="enable-background:new 0 0 44 44;" xml:space="preserve">
<style type="text/css">
	.st0{fill:none;}
</style>
<g id="XMLID_3_">
	<path id="XMLID_4_" d="M34,14.8c-0.6,0.9-1.4,1.8-2.4,2.4c0,0.1,0,0.3,0,0.6c0,1.3-0.2,2.5-0.6,3.8c-0.4,1.3-0.9,2.5-1.7,3.6
		c-0.8,1.2-1.6,2.2-2.7,3.1s-2.3,1.6-3.7,2.1s-3,0.8-4.7,0.8c-2.6,0-5-0.7-7.2-2.1c0.3,0,0.7,0.1,1.1,0.1c2.2,0,4.1-0.7,5.8-2
		c-1,0-1.9-0.3-2.7-0.9s-1.4-1.4-1.7-2.3c0.3,0,0.6,0.1,0.9,0.1c0.4,0,0.8-0.1,1.2-0.2c-1.1-0.2-2-0.8-2.7-1.6s-1.1-1.8-1.1-3v-0.1
		c0.7,0.4,1.4,0.6,2.1,0.6c-0.6-0.4-1.1-1-1.5-1.7c-0.4-0.7-0.6-1.4-0.6-2.2c0-0.9,0.2-1.6,0.6-2.4c1.2,1.4,2.6,2.6,4.3,3.5
		s3.5,1.3,5.4,1.4c-0.1-0.4-0.1-0.7-0.1-1.1c0-1.3,0.5-2.4,1.4-3.3s2-1.4,3.3-1.4c1.4,0,2.5,0.5,3.4,1.5c1.1-0.2,2-0.6,3-1.1
		c-0.4,1.1-1,2-2.1,2.6C32.2,15.4,33.1,15.1,34,14.8z"/>
</g>
<rect id="XMLID_2_" class="st0" width="44" height="44"/>
</svg>
