<?xml version="1.0" encoding="utf-8"?>
<!-- Generator: Adobe Illustrator 21.0.0, SVG Export Plug-In . SVG Version: 6.00 Build 0)  -->
<svg version="1.1" id="Layer_1" xmlns="http://www.w3.org/2000/svg" xmlns:xlink="http://www.w3.org/1999/xlink" x="0px" y="0px"
	 viewBox="0 0 1425 375" style="enable-background:new 0 0 1425 375;" xml:space="preserve">
<g>
	<path d="M1411.9,368.7c-29.5,7.2-33.2-23.7-63.6-23.7c-30.4,0-30.4,24-60.7,24c-30.4,0-30.4-24-60.7-24c-30.4,0-30.4,24-60.7,24
		c-30.4,0-30.4-24-60.7-24c-30.4,0-30.4,24-60.7,24c-30.4,0-30.4-24-60.7-24c-30.4,0-30.4,24-60.7,24c-30.4,0-30.4-24-60.7-24
		c-30.4,0-30.4,24-60.7,24c-30.4,0-30.4-24-60.7-24c-30.4,0-30.4,24-60.7,24c-30.4,0-30.4-24-60.7-24c-30.4,0-30.4,24-60.7,24
		c-30.4,0-30.4-24-60.7-24c-30.4,0-30.4,24-60.7,24c-30.4,0-30.4-24-60.7-24c-30.4,0-30.4,24-60.7,24c-30.4,0-30.4-24-60.7-24
		c-30.4,0-30.4,24-60.7,24c-30.4,0-30.4-24-60.7-24c-30.4,0-30.4,24-60.7,24S44.5,352.6,15,345.4c-7.2-1.8-14.9,4.2-14.9-3.2
		c0-7.4,24-7.4,24-14.9c0-7.4-24-7.4-24-14.9c0-7.4,24-7.4,24-14.9c0-7.4-24-7.4-24-14.9c0-7.4,24-7.4,24-14.9c0-7.4-24-7.4-24-14.9
		c0-7.4,24-7.4,24-14.9c0-7.4-24-7.4-24-14.9c0-7.4,24-7.4,24-14.9c0-7.4-24-7.4-24-14.9c0-7.4,24-7.4,24-14.9c0-7.4-24-7.4-24-14.9
		c0-7.4,24-7.4,24-14.9c0-7.4-24-7.4-24-14.9c0-7.4,24-7.4,24-14.9c0-7.4-24-7.4-24-14.9c0-7.4,24-7.4,24-14.9c0-7.4-24-7.4-24-14.9
		c0-7.4,24-7.4,24-14.9c0-7.4-24-7.4-24-14.9c0-7.4,24-7.4,24-14.9S2,5.3,9.3,3.6c29.5-7.2,33.2,23.7,63.6,23.7
		c30.4,0,30.4-24,60.7-24c30.4,0,30.4,24,60.7,24c30.4,0,30.4-24,60.7-24c30.4,0,30.4,24,60.7,24c30.4,0,30.4-24,60.7-24
		c30.4,0,30.4,24,60.7,24c30.4,0,30.4-24,60.7-24c30.4,0,30.4,24,60.7,24c30.4,0,30.4-24,60.7-24c30.4,0,30.4,24,60.7,24
		c30.4,0,30.4-24,60.7-24c30.4,0,30.4,24,60.7,24c30.4,0,30.4-24,60.7-24c30.4,0,30.4,24,60.7,24c30.4,0,30.4-24,60.7-24
		c30.4,0,30.4,24,60.7,24c30.4,0,30.4-24,60.7-24c30.4,0,30.4,24,60.7,24c30.4,0,30.4-24,60.7-24c30.4,0,30.4,24,60.7,24
		c30.4,0,30.4-24,60.7-24c30.4,0,28.4,16.4,57.9,23.7c7.2,1.8,14.9-4.2,14.9,3.2c0,7.4-24,7.4-24,14.9c0,7.4,24,7.4,24,14.9
		c0,7.4-24,7.4-24,14.9c0,7.4,24,7.4,24,14.9c0,7.4-24,7.4-24,14.9c0,7.4,24,7.4,24,14.9c0,7.4-24,7.4-24,14.9c0,7.4,24,7.4,24,14.9
		c0,7.4-24,7.4-24,14.9c0,7.4,24,7.4,24,14.9c0,7.4-24,7.4-24,14.9c0,7.4,24,7.4,24,14.9c0,7.4-24,7.4-24,14.9c0,7.4,24,7.4,24,14.9
		c0,7.4-24,7.4-24,14.9c0,7.4,24,7.4,24,14.9c0,7.4-24,7.4-24,14.9c0,7.4,24,7.4,24,14.9c0,7.4-24,7.4-24,14.9c0,7.4,24,7.4,24,14.9
		c0,7.4-25.5,10.6-23.6,17.8C1401,358.9,1419.2,366.9,1411.9,368.7z"/>
</g>
</svg>
